<?xml version="1.0" encoding="UTF-8" standalone="no"?><svg xmlns="http://www.w3.org/2000/svg" xmlns:xlink="http://www.w3.org/1999/xlink" contentScriptType="application/ecmascript" contentStyleType="text/css" height="92px" preserveAspectRatio="none" style="width:156px;height:92px;" version="1.1" viewBox="0 0 156 92" width="156px" zoomAndPan="magnify"><defs><filter height="300%" id="f6hr1aoedjd6e" width="300%" x="-1" y="-1"><feGaussianBlur result="blurOut" stdDeviation="2.0"/><feColorMatrix in="blurOut" result="blurOut2" type="matrix" values="0 0 0 0 0 0 0 0 0 0 0 0 0 0 0 0 0 0 .4 0"/><feOffset dx="4.0" dy="4.0" in="blurOut2" result="blurOut3"/><feBlend in="SourceGraphic" in2="blurOut3" mode="normal"/></filter></defs><g><!--MD5=[f77682fd75c3e1fc6a82f566c0814d0f]
class _0--><rect codeLine="7" fill="#FEFECE" filter="url(#f6hr1aoedjd6e)" height="66.7422" id="_0" style="stroke: #A80036; stroke-width: 1.5;" width="130" x="7" y="7"/><ellipse cx="32.8" cy="25.9688" fill="#DA70D6" rx="11" ry="11" style="stroke: #A80036; stroke-width: 1.0;"/><path d="M30.3156,29.2656 C29.6594,29.2656 29.2687,29.5781 29.2687,30.125 C29.2687,30.375 29.4094,30.6406 29.6281,30.7969 C29.7844,30.9219 30.0031,30.9688 30.4094,30.9688 L33.8781,30.9688 C35.3625,30.9688 36.3781,30.5781 37.2063,29.6875 C37.9875,28.875 38.3938,27.8281 38.3938,26.5781 L38.3938,25.7813 C38.3938,23.1094 36.5031,21.0625 34.0188,21.0625 L30.4094,21.0625 C29.9562,21.0625 29.8312,21.0781 29.675,21.1719 C29.425,21.3281 29.2687,21.625 29.2687,21.9063 C29.2687,22.4531 29.6437,22.75 30.3156,22.75 L30.3156,29.2656 Z M32.0031,29.2656 L32.0031,22.75 L33.8781,22.75 C34.7844,22.75 35.425,23.0313 35.9406,23.625 C36.425,24.2031 36.7063,24.9531 36.7063,25.75 L36.7063,26.5313 C36.7063,27.4063 36.4719,28 36.0031,28.5156 C35.4719,29.0625 34.9094,29.2656 33.8938,29.2656 L32.0031,29.2656 Z "/><text fill="#000000" font-family="sans-serif" font-size="12" font-style="italic" lengthAdjust="spacingAndGlyphs" textLength="78" x="47.2" y="23.1387">«Flickr.Note»</text><text fill="#000000" font-family="sans-serif" font-size="12" lengthAdjust="spacingAndGlyphs" textLength="28" x="72.2" y="37.1074">Note</text><line style="stroke: #A80036; stroke-width: 1.5;" x1="8" x2="136" y1="44.9375" y2="44.9375"/><ellipse cx="18" cy="55.9375" fill="none" rx="3" ry="3" style="stroke: #038048; stroke-width: 1.0;"/><text fill="#000000" font-family="sans-serif" font-size="11" lengthAdjust="spacingAndGlyphs" textLength="104" x="27" y="59.1479">description : string</text><line style="stroke: #A80036; stroke-width: 1.5;" x1="8" x2="136" y1="65.7422" y2="65.7422"/><!--MD5=[1b85668684cc6d138354f2da4afc300f]
@startuml
''''''''''''''''''''''''''''''''''''''''''
''                                      ''
''  AUTOGENERATED CODE - - DO NOT EDIT!  ''
''                                      ''
''''''''''''''''''''''''''''''''''''''''''

class "Note" as _0 << (D,orchid) Flickr.Note >> {
+ description : string
}
@enduml

@startuml

class "Note" as _0 << (D,orchid) Flickr.Note >> {
+ description : string
}
@enduml

PlantUML version 1.2020.16beta3(Unknown compile time)
(GPL source distribution)
Java Runtime: Java(TM) SE Runtime Environment
JVM: Java HotSpot(TM) 64-Bit Server VM
Default Encoding: UTF-8
Language: en
Country: US
--></g></svg>