<?xml version="1.0" encoding="UTF-8" standalone="no"?><svg xmlns="http://www.w3.org/2000/svg" xmlns:xlink="http://www.w3.org/1999/xlink" contentScriptType="application/ecmascript" contentStyleType="text/css" height="92px" preserveAspectRatio="none" style="width:156px;height:92px;" version="1.1" viewBox="0 0 156 92" width="156px" zoomAndPan="magnify"><defs><filter height="300%" id="ftnw7o57cb13z" width="300%" x="-1" y="-1"><feGaussianBlur result="blurOut" stdDeviation="2.0"/><feColorMatrix in="blurOut" result="blurOut2" type="matrix" values="0 0 0 0 0 0 0 0 0 0 0 0 0 0 0 0 0 0 .4 0"/><feOffset dx="4.0" dy="4.0" in="blurOut2" result="blurOut3"/><feBlend in="SourceGraphic" in2="blurOut3" mode="normal"/></filter></defs><g><!--MD5=[f77682fd75c3e1fc6a82f566c0814d0f]
class _0--><rect codeLine="7" fill="#FEFECE" filter="url(#ftnw7o57cb13z)" height="66.7422" id="_0" style="stroke: #A80036; stroke-width: 1.5;" width="130" x="7" y="7"/><ellipse cx="49" cy="25.9688" fill="#DA70D6" rx="11" ry="11" style="stroke: #A80036; stroke-width: 1.0;"/><path d="M46.5156,29.2656 C45.8594,29.2656 45.4688,29.5781 45.4688,30.125 C45.4688,30.375 45.6094,30.6406 45.8281,30.7969 C45.9844,30.9219 46.2031,30.9688 46.6094,30.9688 L50.0781,30.9688 C51.5625,30.9688 52.5781,30.5781 53.4063,29.6875 C54.1875,28.875 54.5938,27.8281 54.5938,26.5781 L54.5938,25.7813 C54.5938,23.1094 52.7031,21.0625 50.2188,21.0625 L46.6094,21.0625 C46.1563,21.0625 46.0313,21.0781 45.875,21.1719 C45.625,21.3281 45.4688,21.625 45.4688,21.9063 C45.4688,22.4531 45.8438,22.75 46.5156,22.75 L46.5156,29.2656 Z M48.2031,29.2656 L48.2031,22.75 L50.0781,22.75 C50.9844,22.75 51.625,23.0313 52.1406,23.625 C52.625,24.2031 52.9063,24.9531 52.9063,25.75 L52.9063,26.5313 C52.9063,27.4063 52.6719,28 52.2031,28.5156 C51.6719,29.0625 51.1094,29.2656 50.0938,29.2656 L48.2031,29.2656 Z "/><text fill="#000000" font-family="sans-serif" font-size="12" font-style="italic" lengthAdjust="spacingAndGlyphs" textLength="42" x="67" y="23.1387">«Note»</text><text fill="#000000" font-family="sans-serif" font-size="12" lengthAdjust="spacingAndGlyphs" textLength="28" x="74" y="37.1074">Note</text><line style="stroke: #A80036; stroke-width: 1.5;" x1="8" x2="136" y1="44.9375" y2="44.9375"/><ellipse cx="18" cy="55.9375" fill="none" rx="3" ry="3" style="stroke: #038048; stroke-width: 1.0;"/><text fill="#000000" font-family="sans-serif" font-size="11" lengthAdjust="spacingAndGlyphs" textLength="104" x="27" y="59.1479">description : string</text><line style="stroke: #A80036; stroke-width: 1.5;" x1="8" x2="136" y1="65.7422" y2="65.7422"/><!--MD5=[bf88bc540f4a97003681f5ea63eb78a2]
@startuml
''''''''''''''''''''''''''''''''''''''''''
''                                      ''
''  AUTOGENERATED CODE - - DO NOT EDIT!  ''
''                                      ''
''''''''''''''''''''''''''''''''''''''''''

class "Note" as _0 << (D,orchid) Note >> {
+ description : string
}
@enduml

@startuml

class "Note" as _0 << (D,orchid) Note >> {
+ description : string
}
@enduml

PlantUML version 1.2020.16beta3(Unknown compile time)
(GPL source distribution)
Java Runtime: Java(TM) SE Runtime Environment
JVM: Java HotSpot(TM) 64-Bit Server VM
Default Encoding: UTF-8
Language: en
Country: US
--></g></svg>