<?xml version="1.0" encoding="UTF-8" standalone="no"?><svg xmlns="http://www.w3.org/2000/svg" xmlns:xlink="http://www.w3.org/1999/xlink" contentScriptType="application/ecmascript" contentStyleType="text/css" height="207px" preserveAspectRatio="none" style="width:166px;height:207px;" version="1.1" viewBox="0 0 166 207" width="166px" zoomAndPan="magnify"><defs><filter height="300%" id="fu7hs9a6a428b" width="300%" x="-1" y="-1"><feGaussianBlur result="blurOut" stdDeviation="2.0"/><feColorMatrix in="blurOut" result="blurOut2" type="matrix" values="0 0 0 0 0 0 0 0 0 0 0 0 0 0 0 0 0 0 .4 0"/><feOffset dx="4.0" dy="4.0" in="blurOut2" result="blurOut3"/><feBlend in="SourceGraphic" in2="blurOut3" mode="normal"/></filter></defs><g><!--MD5=[f77682fd75c3e1fc6a82f566c0814d0f]
class _0--><rect codeLine="7" fill="#FEFECE" filter="url(#fu7hs9a6a428b)" height="181.9844" id="_0" style="stroke: #A80036; stroke-width: 1.5;" width="140" x="7" y="7"/><ellipse cx="32.35" cy="25.9688" fill="#DA70D6" rx="11" ry="11" style="stroke: #A80036; stroke-width: 1.0;"/><path d="M29.8656,29.2656 C29.2094,29.2656 28.8188,29.5781 28.8188,30.125 C28.8188,30.375 28.9594,30.6406 29.1781,30.7969 C29.3344,30.9219 29.5531,30.9688 29.9594,30.9688 L33.4281,30.9688 C34.9125,30.9688 35.9281,30.5781 36.7563,29.6875 C37.5375,28.875 37.9438,27.8281 37.9438,26.5781 L37.9438,25.7813 C37.9438,23.1094 36.0531,21.0625 33.5688,21.0625 L29.9594,21.0625 C29.5063,21.0625 29.3813,21.0781 29.225,21.1719 C28.975,21.3281 28.8188,21.625 28.8188,21.9063 C28.8188,22.4531 29.1938,22.75 29.8656,22.75 L29.8656,29.2656 Z M31.5531,29.2656 L31.5531,22.75 L33.4281,22.75 C34.3344,22.75 34.975,23.0313 35.4906,23.625 C35.975,24.2031 36.2563,24.9531 36.2563,25.75 L36.2563,26.5313 C36.2563,27.4063 36.0219,28 35.5531,28.5156 C35.0219,29.0625 34.4594,29.2656 33.4438,29.2656 L31.5531,29.2656 Z "/><text fill="#000000" font-family="sans-serif" font-size="12" font-style="italic" lengthAdjust="spacingAndGlyphs" textLength="89" x="46.65" y="23.1387">«Flickr.Owner»</text><text fill="#000000" font-family="sans-serif" font-size="12" lengthAdjust="spacingAndGlyphs" textLength="40" x="71.15" y="37.1074">Owner</text><line style="stroke: #A80036; stroke-width: 1.5;" x1="8" x2="146" y1="44.9375" y2="44.9375"/><ellipse cx="18" cy="55.9375" fill="none" rx="3" ry="3" style="stroke: #038048; stroke-width: 1.0;"/><text fill="#000000" font-family="sans-serif" font-size="11" lengthAdjust="spacingAndGlyphs" textLength="91" x="27" y="59.1479">iconfarm : string</text><ellipse cx="18" cy="68.7422" fill="none" rx="3" ry="3" style="stroke: #038048; stroke-width: 1.0;"/><text fill="#000000" font-family="sans-serif" font-size="11" lengthAdjust="spacingAndGlyphs" textLength="102" x="27" y="71.9526">iconserver : string</text><ellipse cx="18" cy="81.5469" fill="none" rx="3" ry="3" style="stroke: #038048; stroke-width: 1.0;"/><text fill="#000000" font-family="sans-serif" font-size="11" lengthAdjust="spacingAndGlyphs" textLength="94" x="27" y="84.7573">is_ad_free : bool</text><ellipse cx="18" cy="94.3516" fill="none" rx="3" ry="3" style="stroke: #038048; stroke-width: 1.0;"/><text fill="#000000" font-family="sans-serif" font-size="11" lengthAdjust="spacingAndGlyphs" textLength="62" x="27" y="97.562">ispro : bool</text><ellipse cx="18" cy="107.1563" fill="none" rx="3" ry="3" style="stroke: #038048; stroke-width: 1.0;"/><text fill="#000000" font-family="sans-serif" font-size="11" lengthAdjust="spacingAndGlyphs" textLength="86" x="27" y="110.3667">location : string</text><ellipse cx="18" cy="119.9609" fill="none" rx="3" ry="3" style="stroke: #038048; stroke-width: 1.0;"/><text fill="#000000" font-family="sans-serif" font-size="11" lengthAdjust="spacingAndGlyphs" textLength="114" x="27" y="123.1714">noindexfollow : bool</text><ellipse cx="18" cy="132.7656" fill="none" rx="3" ry="3" style="stroke: #038048; stroke-width: 1.0;"/><text fill="#000000" font-family="sans-serif" font-size="11" lengthAdjust="spacingAndGlyphs" textLength="65" x="27" y="135.9761">nsid : string</text><ellipse cx="18" cy="145.5703" fill="none" rx="3" ry="3" style="stroke: #038048; stroke-width: 1.0;"/><text fill="#000000" font-family="sans-serif" font-size="11" lengthAdjust="spacingAndGlyphs" textLength="99" x="27" y="148.7808">path_alias : string</text><ellipse cx="18" cy="158.375" fill="none" rx="3" ry="3" style="stroke: #038048; stroke-width: 1.0;"/><text fill="#000000" font-family="sans-serif" font-size="11" lengthAdjust="spacingAndGlyphs" textLength="97" x="27" y="161.5854">realname : string</text><ellipse cx="18" cy="171.1797" fill="none" rx="3" ry="3" style="stroke: #038048; stroke-width: 1.0;"/><text fill="#000000" font-family="sans-serif" font-size="11" lengthAdjust="spacingAndGlyphs" textLength="100" x="27" y="174.3901">username : string</text><line style="stroke: #A80036; stroke-width: 1.5;" x1="8" x2="146" y1="180.9844" y2="180.9844"/><!--MD5=[b3365f757a5fe77cf5105b4b1b7e4604]
@startuml
''''''''''''''''''''''''''''''''''''''''''
''                                      ''
''  AUTOGENERATED CODE - - DO NOT EDIT!  ''
''                                      ''
''''''''''''''''''''''''''''''''''''''''''

class "Owner" as _0 << (D,orchid) Flickr.Owner >> {
+ iconfarm : string
+ iconserver : string
+ is_ad_free : bool
+ ispro : bool
+ location : string
+ noindexfollow : bool
+ nsid : string
+ path_alias : string
+ realname : string
+ username : string
}
@enduml

@startuml

class "Owner" as _0 << (D,orchid) Flickr.Owner >> {
+ iconfarm : string
+ iconserver : string
+ is_ad_free : bool
+ ispro : bool
+ location : string
+ noindexfollow : bool
+ nsid : string
+ path_alias : string
+ realname : string
+ username : string
}
@enduml

PlantUML version 1.2020.16beta3(Unknown compile time)
(GPL source distribution)
Java Runtime: Java(TM) SE Runtime Environment
JVM: Java HotSpot(TM) 64-Bit Server VM
Default Encoding: UTF-8
Language: en
Country: US
--></g></svg>