<?xml version="1.0" encoding="UTF-8" standalone="no"?><svg xmlns="http://www.w3.org/2000/svg" xmlns:xlink="http://www.w3.org/1999/xlink" contentScriptType="application/ecmascript" contentStyleType="text/css" height="207px" preserveAspectRatio="none" style="width:166px;height:207px;" version="1.1" viewBox="0 0 166 207" width="166px" zoomAndPan="magnify"><defs><filter height="300%" id="fkzbopduwa0jk" width="300%" x="-1" y="-1"><feGaussianBlur result="blurOut" stdDeviation="2.0"/><feColorMatrix in="blurOut" result="blurOut2" type="matrix" values="0 0 0 0 0 0 0 0 0 0 0 0 0 0 0 0 0 0 .4 0"/><feOffset dx="4.0" dy="4.0" in="blurOut2" result="blurOut3"/><feBlend in="SourceGraphic" in2="blurOut3" mode="normal"/></filter></defs><g><!--MD5=[f77682fd75c3e1fc6a82f566c0814d0f]
class _0--><rect codeLine="7" fill="#FEFECE" filter="url(#fkzbopduwa0jk)" height="181.9844" id="_0" style="stroke: #A80036; stroke-width: 1.5;" width="140" x="7" y="7"/><ellipse cx="48.55" cy="25.9688" fill="#DA70D6" rx="11" ry="11" style="stroke: #A80036; stroke-width: 1.0;"/><path d="M46.0656,29.2656 C45.4094,29.2656 45.0188,29.5781 45.0188,30.125 C45.0188,30.375 45.1594,30.6406 45.3781,30.7969 C45.5344,30.9219 45.7531,30.9688 46.1594,30.9688 L49.6281,30.9688 C51.1125,30.9688 52.1281,30.5781 52.9563,29.6875 C53.7375,28.875 54.1438,27.8281 54.1438,26.5781 L54.1438,25.7813 C54.1438,23.1094 52.2531,21.0625 49.7688,21.0625 L46.1594,21.0625 C45.7063,21.0625 45.5813,21.0781 45.425,21.1719 C45.175,21.3281 45.0188,21.625 45.0188,21.9063 C45.0188,22.4531 45.3938,22.75 46.0656,22.75 L46.0656,29.2656 Z M47.7531,29.2656 L47.7531,22.75 L49.6281,22.75 C50.5344,22.75 51.175,23.0313 51.6906,23.625 C52.175,24.2031 52.4563,24.9531 52.4563,25.75 L52.4563,26.5313 C52.4563,27.4063 52.2219,28 51.7531,28.5156 C51.2219,29.0625 50.6594,29.2656 49.6438,29.2656 L47.7531,29.2656 Z "/><text fill="#000000" font-family="sans-serif" font-size="12" font-style="italic" lengthAdjust="spacingAndGlyphs" textLength="53" x="66.45" y="23.1387">«Owner»</text><text fill="#000000" font-family="sans-serif" font-size="12" lengthAdjust="spacingAndGlyphs" textLength="40" x="72.95" y="37.1074">Owner</text><line style="stroke: #A80036; stroke-width: 1.5;" x1="8" x2="146" y1="44.9375" y2="44.9375"/><ellipse cx="18" cy="55.9375" fill="none" rx="3" ry="3" style="stroke: #038048; stroke-width: 1.0;"/><text fill="#000000" font-family="sans-serif" font-size="11" lengthAdjust="spacingAndGlyphs" textLength="91" x="27" y="59.1479">iconfarm : string</text><ellipse cx="18" cy="68.7422" fill="none" rx="3" ry="3" style="stroke: #038048; stroke-width: 1.0;"/><text fill="#000000" font-family="sans-serif" font-size="11" lengthAdjust="spacingAndGlyphs" textLength="102" x="27" y="71.9526">iconserver : string</text><ellipse cx="18" cy="81.5469" fill="none" rx="3" ry="3" style="stroke: #038048; stroke-width: 1.0;"/><text fill="#000000" font-family="sans-serif" font-size="11" lengthAdjust="spacingAndGlyphs" textLength="94" x="27" y="84.7573">is_ad_free : bool</text><ellipse cx="18" cy="94.3516" fill="none" rx="3" ry="3" style="stroke: #038048; stroke-width: 1.0;"/><text fill="#000000" font-family="sans-serif" font-size="11" lengthAdjust="spacingAndGlyphs" textLength="62" x="27" y="97.562">ispro : bool</text><ellipse cx="18" cy="107.1563" fill="none" rx="3" ry="3" style="stroke: #038048; stroke-width: 1.0;"/><text fill="#000000" font-family="sans-serif" font-size="11" lengthAdjust="spacingAndGlyphs" textLength="86" x="27" y="110.3667">location : string</text><ellipse cx="18" cy="119.9609" fill="none" rx="3" ry="3" style="stroke: #038048; stroke-width: 1.0;"/><text fill="#000000" font-family="sans-serif" font-size="11" lengthAdjust="spacingAndGlyphs" textLength="114" x="27" y="123.1714">noindexfollow : bool</text><ellipse cx="18" cy="132.7656" fill="none" rx="3" ry="3" style="stroke: #038048; stroke-width: 1.0;"/><text fill="#000000" font-family="sans-serif" font-size="11" lengthAdjust="spacingAndGlyphs" textLength="65" x="27" y="135.9761">nsid : string</text><ellipse cx="18" cy="145.5703" fill="none" rx="3" ry="3" style="stroke: #038048; stroke-width: 1.0;"/><text fill="#000000" font-family="sans-serif" font-size="11" lengthAdjust="spacingAndGlyphs" textLength="99" x="27" y="148.7808">path_alias : string</text><ellipse cx="18" cy="158.375" fill="none" rx="3" ry="3" style="stroke: #038048; stroke-width: 1.0;"/><text fill="#000000" font-family="sans-serif" font-size="11" lengthAdjust="spacingAndGlyphs" textLength="97" x="27" y="161.5854">realname : string</text><ellipse cx="18" cy="171.1797" fill="none" rx="3" ry="3" style="stroke: #038048; stroke-width: 1.0;"/><text fill="#000000" font-family="sans-serif" font-size="11" lengthAdjust="spacingAndGlyphs" textLength="100" x="27" y="174.3901">username : string</text><line style="stroke: #A80036; stroke-width: 1.5;" x1="8" x2="146" y1="180.9844" y2="180.9844"/><!--MD5=[22ee06ef390c690466f605ad63ea062b]
@startuml
''''''''''''''''''''''''''''''''''''''''''
''                                      ''
''  AUTOGENERATED CODE - - DO NOT EDIT!  ''
''                                      ''
''''''''''''''''''''''''''''''''''''''''''

class "Owner" as _0 << (D,orchid) Owner >> {
+ iconfarm : string
+ iconserver : string
+ is_ad_free : bool
+ ispro : bool
+ location : string
+ noindexfollow : bool
+ nsid : string
+ path_alias : string
+ realname : string
+ username : string
}
@enduml

@startuml

class "Owner" as _0 << (D,orchid) Owner >> {
+ iconfarm : string
+ iconserver : string
+ is_ad_free : bool
+ ispro : bool
+ location : string
+ noindexfollow : bool
+ nsid : string
+ path_alias : string
+ realname : string
+ username : string
}
@enduml

PlantUML version 1.2020.16beta3(Unknown compile time)
(GPL source distribution)
Java Runtime: Java(TM) SE Runtime Environment
JVM: Java HotSpot(TM) 64-Bit Server VM
Default Encoding: UTF-8
Language: en
Country: US
--></g></svg>