<?xml version="1.0" encoding="UTF-8" standalone="no"?><svg xmlns="http://www.w3.org/2000/svg" xmlns:xlink="http://www.w3.org/1999/xlink" contentScriptType="application/ecmascript" contentStyleType="text/css" height="232px" preserveAspectRatio="none" style="width:186px;height:232px;" version="1.1" viewBox="0 0 186 232" width="186px" zoomAndPan="magnify"><defs><filter height="300%" id="f104rbmgfevn3n" width="300%" x="-1" y="-1"><feGaussianBlur result="blurOut" stdDeviation="2.0"/><feColorMatrix in="blurOut" result="blurOut2" type="matrix" values="0 0 0 0 0 0 0 0 0 0 0 0 0 0 0 0 0 0 .4 0"/><feOffset dx="4.0" dy="4.0" in="blurOut2" result="blurOut3"/><feBlend in="SourceGraphic" in2="blurOut3" mode="normal"/></filter></defs><g><!--MD5=[f77682fd75c3e1fc6a82f566c0814d0f]
class _0--><rect codeLine="7" fill="#FEFECE" filter="url(#f104rbmgfevn3n)" height="66.7422" id="_0" style="stroke: #A80036; stroke-width: 1.5;" width="160" x="7" y="7"/><ellipse cx="31" cy="25.9688" fill="#DA70D6" rx="11" ry="11" style="stroke: #A80036; stroke-width: 1.0;"/><path d="M28.5156,29.2656 C27.8594,29.2656 27.4688,29.5781 27.4688,30.125 C27.4688,30.375 27.6094,30.6406 27.8281,30.7969 C27.9844,30.9219 28.2031,30.9688 28.6094,30.9688 L32.0781,30.9688 C33.5625,30.9688 34.5781,30.5781 35.4063,29.6875 C36.1875,28.875 36.5938,27.8281 36.5938,26.5781 L36.5938,25.7813 C36.5938,23.1094 34.7031,21.0625 32.2188,21.0625 L28.6094,21.0625 C28.1563,21.0625 28.0313,21.0781 27.875,21.1719 C27.625,21.3281 27.4688,21.625 27.4688,21.9063 C27.4688,22.4531 27.8438,22.75 28.5156,22.75 L28.5156,29.2656 Z M30.2031,29.2656 L30.2031,22.75 L32.0781,22.75 C32.9844,22.75 33.625,23.0313 34.1406,23.625 C34.625,24.2031 34.9063,24.9531 34.9063,25.75 L34.9063,26.5313 C34.9063,27.4063 34.6719,28 34.2031,28.5156 C33.6719,29.0625 33.1094,29.2656 32.0938,29.2656 L30.2031,29.2656 Z "/><text fill="#000000" font-family="sans-serif" font-size="12" font-style="italic" lengthAdjust="spacingAndGlyphs" textLength="112" x="45" y="23.1387">«Flickr.Photo_urls»</text><text fill="#000000" font-family="sans-serif" font-size="12" lengthAdjust="spacingAndGlyphs" textLength="61" x="70.5" y="37.1074">Photo_urls</text><line style="stroke: #A80036; stroke-width: 1.5;" x1="8" x2="166" y1="44.9375" y2="44.9375"/><ellipse cx="18" cy="55.9375" fill="none" rx="3" ry="3" style="stroke: #038048; stroke-width: 1.0;"/><text fill="#000000" font-family="sans-serif" font-size="11" lengthAdjust="spacingAndGlyphs" textLength="21" x="27" y="59.1479">url :</text><text fill="#000000" font-family="sans-serif" font-size="11" font-weight="bold" lengthAdjust="spacingAndGlyphs" textLength="109" x="52" y="59.1479">Sequence &lt;URL&gt;</text><line style="stroke: #A80036; stroke-width: 1.5;" x1="8" x2="166" y1="65.7422" y2="65.7422"/><!--MD5=[37d6e5304215b5e345f427169db70937]
class _1--><rect codeLine="10" fill="#FEFECE" filter="url(#f104rbmgfevn3n)" height="79.5469" id="_1" style="stroke: #A80036; stroke-width: 1.5;" width="117" x="28.5" y="134"/><ellipse cx="50.25" cy="152.9688" fill="#DA70D6" rx="11" ry="11" style="stroke: #A80036; stroke-width: 1.0;"/><path d="M47.7656,156.2656 C47.1094,156.2656 46.7188,156.5781 46.7188,157.125 C46.7188,157.375 46.8594,157.6406 47.0781,157.7969 C47.2344,157.9219 47.4531,157.9688 47.8594,157.9688 L51.3281,157.9688 C52.8125,157.9688 53.8281,157.5781 54.6563,156.6875 C55.4375,155.875 55.8438,154.8281 55.8438,153.5781 L55.8438,152.7813 C55.8438,150.1094 53.9531,148.0625 51.4688,148.0625 L47.8594,148.0625 C47.4063,148.0625 47.2813,148.0781 47.125,148.1719 C46.875,148.3281 46.7188,148.625 46.7188,148.9063 C46.7188,149.4531 47.0938,149.75 47.7656,149.75 L47.7656,156.2656 Z M49.4531,156.2656 L49.4531,149.75 L51.3281,149.75 C52.2344,149.75 52.875,150.0313 53.3906,150.625 C53.875,151.2031 54.1563,151.9531 54.1563,152.75 L54.1563,153.5313 C54.1563,154.4063 53.9219,155 53.4531,155.5156 C52.9219,156.0625 52.3594,156.2656 51.3438,156.2656 L49.4531,156.2656 Z "/><text fill="#000000" font-family="sans-serif" font-size="12" font-style="italic" lengthAdjust="spacingAndGlyphs" textLength="74" x="63.75" y="150.1387">«Flickr.URL»</text><text fill="#000000" font-family="sans-serif" font-size="12" lengthAdjust="spacingAndGlyphs" textLength="15" x="93.25" y="164.1074">url</text><line style="stroke: #A80036; stroke-width: 1.5;" x1="29.5" x2="144.5" y1="171.9375" y2="171.9375"/><ellipse cx="39.5" cy="182.9375" fill="none" rx="3" ry="3" style="stroke: #038048; stroke-width: 1.0;"/><text fill="#000000" font-family="sans-serif" font-size="11" lengthAdjust="spacingAndGlyphs" textLength="91" x="48.5" y="186.1479">_content : string</text><ellipse cx="39.5" cy="195.7422" fill="none" rx="3" ry="3" style="stroke: #038048; stroke-width: 1.0;"/><text fill="#000000" font-family="sans-serif" font-size="11" lengthAdjust="spacingAndGlyphs" textLength="68" x="48.5" y="198.9526">type : string</text><line style="stroke: #A80036; stroke-width: 1.5;" x1="29.5" x2="144.5" y1="205.5469" y2="205.5469"/><!--MD5=[bde1413f829cc278731640fabc810278]
reverse link _0 to _1--><path codeLine="14" d="M87,87.38 C87,102.533 87,119.2407 87,133.8433 " fill="none" id="_0&lt;-_1" style="stroke: #A80036; stroke-width: 1.0;"/><polygon fill="#A80036" points="87,74.006,83,80.006,87,86.006,91,80.006,87,74.006" style="stroke: #A80036; stroke-width: 1.0;"/><text fill="#000000" font-family="sans-serif" font-size="13" lengthAdjust="spacingAndGlyphs" textLength="23" x="62.0953" y="123.0656">0..*</text><!--MD5=[d72304abdf45ceba9a075ac6bd5b375f]
@startuml
''''''''''''''''''''''''''''''''''''''''''
''                                      ''
''  AUTOGENERATED CODE - - DO NOT EDIT!  ''
''                                      ''
''''''''''''''''''''''''''''''''''''''''''

class "Photo_urls" as _0 << (D,orchid) Flickr.Photo_urls >> {
+ url : **Sequence <URL>**
}
class "url" as _1 << (D,orchid) Flickr.URL >> {
+ _content : string
+ type : string
}
_0 *- - "0..*" _1
@enduml

@startuml

class "Photo_urls" as _0 << (D,orchid) Flickr.Photo_urls >> {
+ url : **Sequence <URL>**
}
class "url" as _1 << (D,orchid) Flickr.URL >> {
+ _content : string
+ type : string
}
_0 *- - "0..*" _1
@enduml

PlantUML version 1.2020.16beta3(Unknown compile time)
(GPL source distribution)
Java Runtime: Java(TM) SE Runtime Environment
JVM: Java HotSpot(TM) 64-Bit Server VM
Default Encoding: UTF-8
Language: en
Country: US
--></g></svg>