<?xml version="1.0" encoding="UTF-8" standalone="no"?><svg xmlns="http://www.w3.org/2000/svg" xmlns:xlink="http://www.w3.org/1999/xlink" contentScriptType="application/ecmascript" contentStyleType="text/css" height="143px" preserveAspectRatio="none" style="width:186px;height:143px;" version="1.1" viewBox="0 0 186 143" width="186px" zoomAndPan="magnify"><defs><filter height="300%" id="f1tc60zamgyixg" width="300%" x="-1" y="-1"><feGaussianBlur result="blurOut" stdDeviation="2.0"/><feColorMatrix in="blurOut" result="blurOut2" type="matrix" values="0 0 0 0 0 0 0 0 0 0 0 0 0 0 0 0 0 0 .4 0"/><feOffset dx="4.0" dy="4.0" in="blurOut2" result="blurOut3"/><feBlend in="SourceGraphic" in2="blurOut3" mode="normal"/></filter></defs><g><!--MD5=[f77682fd75c3e1fc6a82f566c0814d0f]
class _0--><rect codeLine="7" fill="#FEFECE" filter="url(#f1tc60zamgyixg)" height="117.9609" id="_0" style="stroke: #A80036; stroke-width: 1.5;" width="160" x="7" y="7"/><ellipse cx="26.05" cy="25.9688" fill="#DA70D6" rx="11" ry="11" style="stroke: #A80036; stroke-width: 1.0;"/><path d="M23.5656,29.2656 C22.9094,29.2656 22.5188,29.5781 22.5188,30.125 C22.5188,30.375 22.6594,30.6406 22.8781,30.7969 C23.0344,30.9219 23.2531,30.9688 23.6594,30.9688 L27.1281,30.9688 C28.6125,30.9688 29.6281,30.5781 30.4563,29.6875 C31.2375,28.875 31.6438,27.8281 31.6438,26.5781 L31.6438,25.7813 C31.6438,23.1094 29.7531,21.0625 27.2688,21.0625 L23.6594,21.0625 C23.2063,21.0625 23.0813,21.0781 22.925,21.1719 C22.675,21.3281 22.5188,21.625 22.5188,21.9063 C22.5188,22.4531 22.8938,22.75 23.5656,22.75 L23.5656,29.2656 Z M25.2531,29.2656 L25.2531,22.75 L27.1281,22.75 C28.0344,22.75 28.675,23.0313 29.1906,23.625 C29.675,24.2031 29.9563,24.9531 29.9563,25.75 L29.9563,26.5313 C29.9563,27.4063 29.7219,28 29.2531,28.5156 C28.7219,29.0625 28.1594,29.2656 27.1438,29.2656 L25.2531,29.2656 Z "/><text fill="#000000" font-family="sans-serif" font-size="12" font-style="italic" lengthAdjust="spacingAndGlyphs" textLength="123" x="38.95" y="23.1387">«Flickr.Photo_dates»</text><text fill="#000000" font-family="sans-serif" font-size="12" lengthAdjust="spacingAndGlyphs" textLength="73" x="63.95" y="37.1074">Photo_dates</text><line style="stroke: #A80036; stroke-width: 1.5;" x1="8" x2="166" y1="44.9375" y2="44.9375"/><ellipse cx="18" cy="55.9375" fill="none" rx="3" ry="3" style="stroke: #038048; stroke-width: 1.0;"/><text fill="#000000" font-family="sans-serif" font-size="11" lengthAdjust="spacingAndGlyphs" textLength="102" x="27" y="59.1479">lastupdate : string</text><ellipse cx="18" cy="68.7422" fill="none" rx="3" ry="3" style="stroke: #038048; stroke-width: 1.0;"/><text fill="#000000" font-family="sans-serif" font-size="11" lengthAdjust="spacingAndGlyphs" textLength="81" x="27" y="71.9526">posted : string</text><ellipse cx="18" cy="81.5469" fill="none" rx="3" ry="3" style="stroke: #038048; stroke-width: 1.0;"/><text fill="#000000" font-family="sans-serif" font-size="11" lengthAdjust="spacingAndGlyphs" textLength="74" x="27" y="84.7573">taken : string</text><ellipse cx="18" cy="94.3516" fill="none" rx="3" ry="3" style="stroke: #038048; stroke-width: 1.0;"/><text fill="#000000" font-family="sans-serif" font-size="11" lengthAdjust="spacingAndGlyphs" textLength="134" x="27" y="97.562">takengranularity : string</text><ellipse cx="18" cy="107.1563" fill="none" rx="3" ry="3" style="stroke: #038048; stroke-width: 1.0;"/><text fill="#000000" font-family="sans-serif" font-size="11" lengthAdjust="spacingAndGlyphs" textLength="117" x="27" y="110.3667">takenunknown : bool</text><line style="stroke: #A80036; stroke-width: 1.5;" x1="8" x2="166" y1="116.9609" y2="116.9609"/><!--MD5=[b20443eef0607946df01466fa160025d]
@startuml
''''''''''''''''''''''''''''''''''''''''''
''                                      ''
''  AUTOGENERATED CODE - - DO NOT EDIT!  ''
''                                      ''
''''''''''''''''''''''''''''''''''''''''''

class "Photo_dates" as _0 << (D,orchid) Flickr.Photo_dates >> {
+ lastupdate : string
+ posted : string
+ taken : string
+ takengranularity : string
+ takenunknown : bool
}
@enduml

@startuml

class "Photo_dates" as _0 << (D,orchid) Flickr.Photo_dates >> {
+ lastupdate : string
+ posted : string
+ taken : string
+ takengranularity : string
+ takenunknown : bool
}
@enduml

PlantUML version 1.2020.16beta3(Unknown compile time)
(GPL source distribution)
Java Runtime: Java(TM) SE Runtime Environment
JVM: Java HotSpot(TM) 64-Bit Server VM
Default Encoding: UTF-8
Language: en
Country: US
--></g></svg>