<?xml version="1.0" encoding="UTF-8" standalone="no"?><svg xmlns="http://www.w3.org/2000/svg" xmlns:xlink="http://www.w3.org/1999/xlink" contentScriptType="application/ecmascript" contentStyleType="text/css" height="92px" preserveAspectRatio="none" style="width:207px;height:92px;" version="1.1" viewBox="0 0 207 92" width="207px" zoomAndPan="magnify"><defs><filter height="300%" id="f74pczaye3m53" width="300%" x="-1" y="-1"><feGaussianBlur result="blurOut" stdDeviation="2.0"/><feColorMatrix in="blurOut" result="blurOut2" type="matrix" values="0 0 0 0 0 0 0 0 0 0 0 0 0 0 0 0 0 0 .4 0"/><feOffset dx="4.0" dy="4.0" in="blurOut2" result="blurOut3"/><feBlend in="SourceGraphic" in2="blurOut3" mode="normal"/></filter></defs><g><!--MD5=[f77682fd75c3e1fc6a82f566c0814d0f]
class _0--><rect codeLine="7" fill="#FEFECE" filter="url(#f74pczaye3m53)" height="66.7422" id="_0" style="stroke: #A80036; stroke-width: 1.5;" width="181" x="7" y="7"/><ellipse cx="51.75" cy="25.9688" fill="#DA70D6" rx="11" ry="11" style="stroke: #A80036; stroke-width: 1.0;"/><path d="M49.2656,29.2656 C48.6094,29.2656 48.2188,29.5781 48.2188,30.125 C48.2188,30.375 48.3594,30.6406 48.5781,30.7969 C48.7344,30.9219 48.9531,30.9688 49.3594,30.9688 L52.8281,30.9688 C54.3125,30.9688 55.3281,30.5781 56.1563,29.6875 C56.9375,28.875 57.3438,27.8281 57.3438,26.5781 L57.3438,25.7813 C57.3438,23.1094 55.4531,21.0625 52.9688,21.0625 L49.3594,21.0625 C48.9063,21.0625 48.7813,21.0781 48.625,21.1719 C48.375,21.3281 48.2188,21.625 48.2188,21.9063 C48.2188,22.4531 48.5938,22.75 49.2656,22.75 L49.2656,29.2656 Z M50.9531,29.2656 L50.9531,22.75 L52.8281,22.75 C53.7344,22.75 54.375,23.0313 54.8906,23.625 C55.375,24.2031 55.6563,24.9531 55.6563,25.75 L55.6563,26.5313 C55.6563,27.4063 55.4219,28 54.9531,28.5156 C54.4219,29.0625 53.8594,29.2656 52.8438,29.2656 L50.9531,29.2656 Z "/><text fill="#000000" font-family="sans-serif" font-size="12" font-style="italic" lengthAdjust="spacingAndGlyphs" textLength="87" x="70.25" y="23.1387">«Photo_notes»</text><text fill="#000000" font-family="sans-serif" font-size="12" lengthAdjust="spacingAndGlyphs" textLength="73" x="77.25" y="37.1074">Photo_notes</text><line style="stroke: #A80036; stroke-width: 1.5;" x1="8" x2="187" y1="44.9375" y2="44.9375"/><ellipse cx="18" cy="55.9375" fill="none" rx="3" ry="3" style="stroke: #038048; stroke-width: 1.0;"/><text fill="#000000" font-family="sans-serif" font-size="11" lengthAdjust="spacingAndGlyphs" textLength="33" x="27" y="59.1479">note :</text><text fill="#000000" font-family="sans-serif" font-size="11" font-weight="bold" lengthAdjust="spacingAndGlyphs" textLength="118" x="64" y="59.1479">Sequence &lt;Note&gt;</text><line style="stroke: #A80036; stroke-width: 1.5;" x1="8" x2="187" y1="65.7422" y2="65.7422"/><!--MD5=[e31c231bf95cabe4356a9336fea7098f]
@startuml
''''''''''''''''''''''''''''''''''''''''''
''                                      ''
''  AUTOGENERATED CODE - - DO NOT EDIT!  ''
''                                      ''
''''''''''''''''''''''''''''''''''''''''''

class "Photo_notes" as _0 << (D,orchid) Photo_notes >> {
+ note : **Sequence <Note>**
}
@enduml

@startuml

class "Photo_notes" as _0 << (D,orchid) Photo_notes >> {
+ note : **Sequence <Note>**
}
@enduml

PlantUML version 1.2020.16beta3(Unknown compile time)
(GPL source distribution)
Java Runtime: Java(TM) SE Runtime Environment
JVM: Java HotSpot(TM) 64-Bit Server VM
Default Encoding: UTF-8
Language: en
Country: US
--></g></svg>