<?xml version="1.0" encoding="UTF-8" standalone="no"?><svg xmlns="http://www.w3.org/2000/svg" xmlns:xlink="http://www.w3.org/1999/xlink" contentScriptType="application/ecmascript" contentStyleType="text/css" height="92px" preserveAspectRatio="none" style="width:186px;height:92px;" version="1.1" viewBox="0 0 186 92" width="186px" zoomAndPan="magnify"><defs><filter height="300%" id="f1196egrctaob" width="300%" x="-1" y="-1"><feGaussianBlur result="blurOut" stdDeviation="2.0"/><feColorMatrix in="blurOut" result="blurOut2" type="matrix" values="0 0 0 0 0 0 0 0 0 0 0 0 0 0 0 0 0 0 .4 0"/><feOffset dx="4.0" dy="4.0" in="blurOut2" result="blurOut3"/><feBlend in="SourceGraphic" in2="blurOut3" mode="normal"/></filter></defs><g><!--MD5=[f77682fd75c3e1fc6a82f566c0814d0f]
class _0--><rect codeLine="7" fill="#FEFECE" filter="url(#f1196egrctaob)" height="66.7422" id="_0" style="stroke: #A80036; stroke-width: 1.5;" width="160" x="7" y="7"/><ellipse cx="47.2" cy="25.9688" fill="#DA70D6" rx="11" ry="11" style="stroke: #A80036; stroke-width: 1.0;"/><path d="M44.7156,29.2656 C44.0594,29.2656 43.6688,29.5781 43.6688,30.125 C43.6688,30.375 43.8094,30.6406 44.0281,30.7969 C44.1844,30.9219 44.4031,30.9688 44.8094,30.9688 L48.2781,30.9688 C49.7625,30.9688 50.7781,30.5781 51.6063,29.6875 C52.3875,28.875 52.7938,27.8281 52.7938,26.5781 L52.7938,25.7813 C52.7938,23.1094 50.9031,21.0625 48.4188,21.0625 L44.8094,21.0625 C44.3563,21.0625 44.2313,21.0781 44.075,21.1719 C43.825,21.3281 43.6688,21.625 43.6688,21.9063 C43.6688,22.4531 44.0438,22.75 44.7156,22.75 L44.7156,29.2656 Z M46.4031,29.2656 L46.4031,22.75 L48.2781,22.75 C49.1844,22.75 49.825,23.0313 50.3406,23.625 C50.825,24.2031 51.1063,24.9531 51.1063,25.75 L51.1063,26.5313 C51.1063,27.4063 50.8719,28 50.4031,28.5156 C49.8719,29.0625 49.3094,29.2656 48.2938,29.2656 L46.4031,29.2656 Z "/><text fill="#000000" font-family="sans-serif" font-size="12" font-style="italic" lengthAdjust="spacingAndGlyphs" textLength="76" x="64.8" y="23.1387">«Photo_urls»</text><text fill="#000000" font-family="sans-serif" font-size="12" lengthAdjust="spacingAndGlyphs" textLength="61" x="72.3" y="37.1074">Photo_urls</text><line style="stroke: #A80036; stroke-width: 1.5;" x1="8" x2="166" y1="44.9375" y2="44.9375"/><ellipse cx="18" cy="55.9375" fill="none" rx="3" ry="3" style="stroke: #038048; stroke-width: 1.0;"/><text fill="#000000" font-family="sans-serif" font-size="11" lengthAdjust="spacingAndGlyphs" textLength="21" x="27" y="59.1479">url :</text><text fill="#000000" font-family="sans-serif" font-size="11" font-weight="bold" lengthAdjust="spacingAndGlyphs" textLength="109" x="52" y="59.1479">Sequence &lt;URL&gt;</text><line style="stroke: #A80036; stroke-width: 1.5;" x1="8" x2="166" y1="65.7422" y2="65.7422"/><!--MD5=[ecee405f1bc0e10f4d4a863b278b34de]
@startuml
''''''''''''''''''''''''''''''''''''''''''
''                                      ''
''  AUTOGENERATED CODE - - DO NOT EDIT!  ''
''                                      ''
''''''''''''''''''''''''''''''''''''''''''

class "Photo_urls" as _0 << (D,orchid) Photo_urls >> {
+ url : **Sequence <URL>**
}
@enduml

@startuml

class "Photo_urls" as _0 << (D,orchid) Photo_urls >> {
+ url : **Sequence <URL>**
}
@enduml

PlantUML version 1.2020.16beta3(Unknown compile time)
(GPL source distribution)
Java Runtime: Java(TM) SE Runtime Environment
JVM: Java HotSpot(TM) 64-Bit Server VM
Default Encoding: UTF-8
Language: en
Country: US
--></g></svg>