<?xml version="1.0" encoding="UTF-8" standalone="no"?><svg xmlns="http://www.w3.org/2000/svg" xmlns:xlink="http://www.w3.org/1999/xlink" contentScriptType="application/ecmascript" contentStyleType="text/css" height="143px" preserveAspectRatio="none" style="width:186px;height:143px;" version="1.1" viewBox="0 0 186 143" width="186px" zoomAndPan="magnify"><defs><filter height="300%" id="f15fjbkn65fc8n" width="300%" x="-1" y="-1"><feGaussianBlur result="blurOut" stdDeviation="2.0"/><feColorMatrix in="blurOut" result="blurOut2" type="matrix" values="0 0 0 0 0 0 0 0 0 0 0 0 0 0 0 0 0 0 .4 0"/><feOffset dx="4.0" dy="4.0" in="blurOut2" result="blurOut3"/><feBlend in="SourceGraphic" in2="blurOut3" mode="normal"/></filter></defs><g><!--MD5=[f77682fd75c3e1fc6a82f566c0814d0f]
class _0--><rect codeLine="7" fill="#FEFECE" filter="url(#f15fjbkn65fc8n)" height="117.9609" id="_0" style="stroke: #A80036; stroke-width: 1.5;" width="160" x="7" y="7"/><ellipse cx="42.25" cy="25.9688" fill="#DA70D6" rx="11" ry="11" style="stroke: #A80036; stroke-width: 1.0;"/><path d="M39.7656,29.2656 C39.1094,29.2656 38.7188,29.5781 38.7188,30.125 C38.7188,30.375 38.8594,30.6406 39.0781,30.7969 C39.2344,30.9219 39.4531,30.9688 39.8594,30.9688 L43.3281,30.9688 C44.8125,30.9688 45.8281,30.5781 46.6563,29.6875 C47.4375,28.875 47.8438,27.8281 47.8438,26.5781 L47.8438,25.7813 C47.8438,23.1094 45.9531,21.0625 43.4688,21.0625 L39.8594,21.0625 C39.4063,21.0625 39.2813,21.0781 39.125,21.1719 C38.875,21.3281 38.7188,21.625 38.7188,21.9063 C38.7188,22.4531 39.0938,22.75 39.7656,22.75 L39.7656,29.2656 Z M41.4531,29.2656 L41.4531,22.75 L43.3281,22.75 C44.2344,22.75 44.875,23.0313 45.3906,23.625 C45.875,24.2031 46.1563,24.9531 46.1563,25.75 L46.1563,26.5313 C46.1563,27.4063 45.9219,28 45.4531,28.5156 C44.9219,29.0625 44.3594,29.2656 43.3438,29.2656 L41.4531,29.2656 Z "/><text fill="#000000" font-family="sans-serif" font-size="12" font-style="italic" lengthAdjust="spacingAndGlyphs" textLength="87" x="58.75" y="23.1387">«Photo_dates»</text><text fill="#000000" font-family="sans-serif" font-size="12" lengthAdjust="spacingAndGlyphs" textLength="73" x="65.75" y="37.1074">Photo_dates</text><line style="stroke: #A80036; stroke-width: 1.5;" x1="8" x2="166" y1="44.9375" y2="44.9375"/><ellipse cx="18" cy="55.9375" fill="none" rx="3" ry="3" style="stroke: #038048; stroke-width: 1.0;"/><text fill="#000000" font-family="sans-serif" font-size="11" lengthAdjust="spacingAndGlyphs" textLength="102" x="27" y="59.1479">lastupdate : string</text><ellipse cx="18" cy="68.7422" fill="none" rx="3" ry="3" style="stroke: #038048; stroke-width: 1.0;"/><text fill="#000000" font-family="sans-serif" font-size="11" lengthAdjust="spacingAndGlyphs" textLength="81" x="27" y="71.9526">posted : string</text><ellipse cx="18" cy="81.5469" fill="none" rx="3" ry="3" style="stroke: #038048; stroke-width: 1.0;"/><text fill="#000000" font-family="sans-serif" font-size="11" lengthAdjust="spacingAndGlyphs" textLength="74" x="27" y="84.7573">taken : string</text><ellipse cx="18" cy="94.3516" fill="none" rx="3" ry="3" style="stroke: #038048; stroke-width: 1.0;"/><text fill="#000000" font-family="sans-serif" font-size="11" lengthAdjust="spacingAndGlyphs" textLength="134" x="27" y="97.562">takengranularity : string</text><ellipse cx="18" cy="107.1563" fill="none" rx="3" ry="3" style="stroke: #038048; stroke-width: 1.0;"/><text fill="#000000" font-family="sans-serif" font-size="11" lengthAdjust="spacingAndGlyphs" textLength="117" x="27" y="110.3667">takenunknown : bool</text><line style="stroke: #A80036; stroke-width: 1.5;" x1="8" x2="166" y1="116.9609" y2="116.9609"/><!--MD5=[80b1b23097d695ac2c4847a980c5b1ff]
@startuml
''''''''''''''''''''''''''''''''''''''''''
''                                      ''
''  AUTOGENERATED CODE - - DO NOT EDIT!  ''
''                                      ''
''''''''''''''''''''''''''''''''''''''''''

class "Photo_dates" as _0 << (D,orchid) Photo_dates >> {
+ lastupdate : string
+ posted : string
+ taken : string
+ takengranularity : string
+ takenunknown : bool
}
@enduml

@startuml

class "Photo_dates" as _0 << (D,orchid) Photo_dates >> {
+ lastupdate : string
+ posted : string
+ taken : string
+ takengranularity : string
+ takenunknown : bool
}
@enduml

PlantUML version 1.2020.16beta3(Unknown compile time)
(GPL source distribution)
Java Runtime: Java(TM) SE Runtime Environment
JVM: Java HotSpot(TM) 64-Bit Server VM
Default Encoding: UTF-8
Language: en
Country: US
--></g></svg>