<?xml version="1.0" encoding="UTF-8" standalone="no"?><svg xmlns="http://www.w3.org/2000/svg" xmlns:xlink="http://www.w3.org/1999/xlink" contentScriptType="application/ecmascript" contentStyleType="text/css" height="92px" preserveAspectRatio="none" style="width:191px;height:92px;" version="1.1" viewBox="0 0 191 92" width="191px" zoomAndPan="magnify"><defs><filter height="300%" id="f14ib1xp4af5cb" width="300%" x="-1" y="-1"><feGaussianBlur result="blurOut" stdDeviation="2.0"/><feColorMatrix in="blurOut" result="blurOut2" type="matrix" values="0 0 0 0 0 0 0 0 0 0 0 0 0 0 0 0 0 0 .4 0"/><feOffset dx="4.0" dy="4.0" in="blurOut2" result="blurOut3"/><feBlend in="SourceGraphic" in2="blurOut3" mode="normal"/></filter></defs><g><!--MD5=[f77682fd75c3e1fc6a82f566c0814d0f]
class _0--><rect codeLine="7" fill="#FEFECE" filter="url(#f14ib1xp4af5cb)" height="66.7422" id="_0" style="stroke: #A80036; stroke-width: 1.5;" width="165" x="7" y="7"/><ellipse cx="47.65" cy="25.9688" fill="#DA70D6" rx="11" ry="11" style="stroke: #A80036; stroke-width: 1.0;"/><path d="M45.1656,29.2656 C44.5094,29.2656 44.1188,29.5781 44.1188,30.125 C44.1188,30.375 44.2594,30.6406 44.4781,30.7969 C44.6344,30.9219 44.8531,30.9688 45.2594,30.9688 L48.7281,30.9688 C50.2125,30.9688 51.2281,30.5781 52.0563,29.6875 C52.8375,28.875 53.2438,27.8281 53.2438,26.5781 L53.2438,25.7813 C53.2438,23.1094 51.3531,21.0625 48.8688,21.0625 L45.2594,21.0625 C44.8063,21.0625 44.6813,21.0781 44.525,21.1719 C44.275,21.3281 44.1188,21.625 44.1188,21.9063 C44.1188,22.4531 44.4938,22.75 45.1656,22.75 L45.1656,29.2656 Z M46.8531,29.2656 L46.8531,22.75 L48.7281,22.75 C49.6344,22.75 50.275,23.0313 50.7906,23.625 C51.275,24.2031 51.5563,24.9531 51.5563,25.75 L51.5563,26.5313 C51.5563,27.4063 51.3219,28 50.8531,28.5156 C50.3219,29.0625 49.7594,29.2656 48.7438,29.2656 L46.8531,29.2656 Z "/><text fill="#000000" font-family="sans-serif" font-size="12" font-style="italic" lengthAdjust="spacingAndGlyphs" textLength="80" x="65.35" y="23.1387">«Photo_tags»</text><text fill="#000000" font-family="sans-serif" font-size="12" lengthAdjust="spacingAndGlyphs" textLength="65" x="72.85" y="37.1074">Photo_tags</text><line style="stroke: #A80036; stroke-width: 1.5;" x1="8" x2="171" y1="44.9375" y2="44.9375"/><ellipse cx="18" cy="55.9375" fill="none" rx="3" ry="3" style="stroke: #038048; stroke-width: 1.0;"/><text fill="#000000" font-family="sans-serif" font-size="11" lengthAdjust="spacingAndGlyphs" textLength="25" x="27" y="59.1479">tag :</text><text fill="#000000" font-family="sans-serif" font-size="11" font-weight="bold" lengthAdjust="spacingAndGlyphs" textLength="110" x="56" y="59.1479">Sequence &lt;Tag&gt;</text><line style="stroke: #A80036; stroke-width: 1.5;" x1="8" x2="171" y1="65.7422" y2="65.7422"/><!--MD5=[45f59245d397d7bd322701ff3d73fe72]
@startuml
''''''''''''''''''''''''''''''''''''''''''
''                                      ''
''  AUTOGENERATED CODE - - DO NOT EDIT!  ''
''                                      ''
''''''''''''''''''''''''''''''''''''''''''

class "Photo_tags" as _0 << (D,orchid) Photo_tags >> {
+ tag : **Sequence <Tag>**
}
@enduml

@startuml

class "Photo_tags" as _0 << (D,orchid) Photo_tags >> {
+ tag : **Sequence <Tag>**
}
@enduml

PlantUML version 1.2020.16beta3(Unknown compile time)
(GPL source distribution)
Java Runtime: Java(TM) SE Runtime Environment
JVM: Java HotSpot(TM) 64-Bit Server VM
Default Encoding: UTF-8
Language: en
Country: US
--></g></svg>