<?xml version="1.0" encoding="UTF-8" standalone="no"?><svg xmlns="http://www.w3.org/2000/svg" xmlns:xlink="http://www.w3.org/1999/xlink" contentScriptType="application/ecmascript" contentStyleType="text/css" height="143px" preserveAspectRatio="none" style="width:228px;height:143px;" version="1.1" viewBox="0 0 228 143" width="228px" zoomAndPan="magnify"><defs><filter height="300%" id="fcetgdtvxz8tx" width="300%" x="-1" y="-1"><feGaussianBlur result="blurOut" stdDeviation="2.0"/><feColorMatrix in="blurOut" result="blurOut2" type="matrix" values="0 0 0 0 0 0 0 0 0 0 0 0 0 0 0 0 0 0 .4 0"/><feOffset dx="4.0" dy="4.0" in="blurOut2" result="blurOut3"/><feBlend in="SourceGraphic" in2="blurOut3" mode="normal"/></filter></defs><g><!--MD5=[f77682fd75c3e1fc6a82f566c0814d0f]
class _0--><rect codeLine="7" fill="#FEFECE" filter="url(#fcetgdtvxz8tx)" height="117.9609" id="_0" style="stroke: #A80036; stroke-width: 1.5;" width="202" x="7" y="7"/><ellipse cx="54.25" cy="25.9688" fill="#DA70D6" rx="11" ry="11" style="stroke: #A80036; stroke-width: 1.0;"/><path d="M51.7656,29.2656 C51.1094,29.2656 50.7188,29.5781 50.7188,30.125 C50.7188,30.375 50.8594,30.6406 51.0781,30.7969 C51.2344,30.9219 51.4531,30.9688 51.8594,30.9688 L55.3281,30.9688 C56.8125,30.9688 57.8281,30.5781 58.6563,29.6875 C59.4375,28.875 59.8438,27.8281 59.8438,26.5781 L59.8438,25.7813 C59.8438,23.1094 57.9531,21.0625 55.4688,21.0625 L51.8594,21.0625 C51.4063,21.0625 51.2813,21.0781 51.125,21.1719 C50.875,21.3281 50.7188,21.625 50.7188,21.9063 C50.7188,22.4531 51.0938,22.75 51.7656,22.75 L51.7656,29.2656 Z M53.4531,29.2656 L53.4531,22.75 L55.3281,22.75 C56.2344,22.75 56.875,23.0313 57.3906,23.625 C57.875,24.2031 58.1563,24.9531 58.1563,25.75 L58.1563,26.5313 C58.1563,27.4063 57.9219,28 57.4531,28.5156 C56.9219,29.0625 56.3594,29.2656 55.3438,29.2656 L53.4531,29.2656 Z "/><text fill="#000000" font-family="sans-serif" font-size="12" font-style="italic" lengthAdjust="spacingAndGlyphs" textLength="103" x="72.75" y="23.1387">«PhotoResource»</text><text fill="#000000" font-family="sans-serif" font-size="12" lengthAdjust="spacingAndGlyphs" textLength="90" x="79.25" y="37.1074">PhotoResource</text><line style="stroke: #A80036; stroke-width: 1.5;" x1="8" x2="208" y1="44.9375" y2="44.9375"/><ellipse cx="18" cy="55.9375" fill="none" rx="3" ry="3" style="stroke: #038048; stroke-width: 1.0;"/><text fill="#000000" font-family="sans-serif" font-size="11" lengthAdjust="spacingAndGlyphs" textLength="65" x="27" y="59.1479">page : float</text><ellipse cx="18" cy="68.7422" fill="none" rx="3" ry="3" style="stroke: #038048; stroke-width: 1.0;"/><text fill="#000000" font-family="sans-serif" font-size="11" lengthAdjust="spacingAndGlyphs" textLength="71" x="27" y="71.9526">pages : float</text><ellipse cx="18" cy="81.5469" fill="none" rx="3" ry="3" style="stroke: #038048; stroke-width: 1.0;"/><text fill="#000000" font-family="sans-serif" font-size="11" lengthAdjust="spacingAndGlyphs" textLength="84" x="27" y="84.7573">perpage : float</text><ellipse cx="18" cy="94.3516" fill="none" rx="3" ry="3" style="stroke: #038048; stroke-width: 1.0;"/><text fill="#000000" font-family="sans-serif" font-size="11" lengthAdjust="spacingAndGlyphs" textLength="45" x="27" y="97.562">photos :</text><text fill="#000000" font-family="sans-serif" font-size="11" font-weight="bold" lengthAdjust="spacingAndGlyphs" textLength="127" x="76" y="97.562">Sequence &lt;Photo&gt;</text><ellipse cx="18" cy="107.1563" fill="none" rx="3" ry="3" style="stroke: #038048; stroke-width: 1.0;"/><text fill="#000000" font-family="sans-serif" font-size="11" lengthAdjust="spacingAndGlyphs" textLength="61" x="27" y="110.3667">total : float</text><line style="stroke: #A80036; stroke-width: 1.5;" x1="8" x2="208" y1="116.9609" y2="116.9609"/><!--MD5=[22761cf15be9a4a5d02360db0ce12022]
@startuml
''''''''''''''''''''''''''''''''''''''''''
''                                      ''
''  AUTOGENERATED CODE - - DO NOT EDIT!  ''
''                                      ''
''''''''''''''''''''''''''''''''''''''''''

class "PhotoResource" as _0 << (D,orchid) PhotoResource >> {
+ page : float
+ pages : float
+ perpage : float
+ photos : **Sequence <Photo>**
+ total : float
}
@enduml

@startuml

class "PhotoResource" as _0 << (D,orchid) PhotoResource >> {
+ page : float
+ pages : float
+ perpage : float
+ photos : **Sequence <Photo>**
+ total : float
}
@enduml

PlantUML version 1.2020.16beta3(Unknown compile time)
(GPL source distribution)
Java Runtime: Java(TM) SE Runtime Environment
JVM: Java HotSpot(TM) 64-Bit Server VM
Default Encoding: UTF-8
Language: en
Country: US
--></g></svg>