<?xml version="1.0" encoding="UTF-8" standalone="no"?><svg xmlns="http://www.w3.org/2000/svg" xmlns:xlink="http://www.w3.org/1999/xlink" contentScriptType="application/ecmascript" contentStyleType="text/css" height="283px" preserveAspectRatio="none" style="width:191px;height:283px;" version="1.1" viewBox="0 0 191 283" width="191px" zoomAndPan="magnify"><defs><filter height="300%" id="fdkjjxyvz18ia" width="300%" x="-1" y="-1"><feGaussianBlur result="blurOut" stdDeviation="2.0"/><feColorMatrix in="blurOut" result="blurOut2" type="matrix" values="0 0 0 0 0 0 0 0 0 0 0 0 0 0 0 0 0 0 .4 0"/><feOffset dx="4.0" dy="4.0" in="blurOut2" result="blurOut3"/><feBlend in="SourceGraphic" in2="blurOut3" mode="normal"/></filter></defs><g><!--MD5=[f77682fd75c3e1fc6a82f566c0814d0f]
class _0--><rect codeLine="7" fill="#FEFECE" filter="url(#fdkjjxyvz18ia)" height="66.7422" id="_0" style="stroke: #A80036; stroke-width: 1.5;" width="165" x="7" y="7"/><ellipse cx="31.45" cy="25.9688" fill="#DA70D6" rx="11" ry="11" style="stroke: #A80036; stroke-width: 1.0;"/><path d="M28.9656,29.2656 C28.3094,29.2656 27.9188,29.5781 27.9188,30.125 C27.9188,30.375 28.0594,30.6406 28.2781,30.7969 C28.4344,30.9219 28.6531,30.9688 29.0594,30.9688 L32.5281,30.9688 C34.0125,30.9688 35.0281,30.5781 35.8563,29.6875 C36.6375,28.875 37.0438,27.8281 37.0438,26.5781 L37.0438,25.7813 C37.0438,23.1094 35.1531,21.0625 32.6688,21.0625 L29.0594,21.0625 C28.6063,21.0625 28.4813,21.0781 28.325,21.1719 C28.075,21.3281 27.9188,21.625 27.9188,21.9063 C27.9188,22.4531 28.2938,22.75 28.9656,22.75 L28.9656,29.2656 Z M30.6531,29.2656 L30.6531,22.75 L32.5281,22.75 C33.4344,22.75 34.075,23.0313 34.5906,23.625 C35.075,24.2031 35.3563,24.9531 35.3563,25.75 L35.3563,26.5313 C35.3563,27.4063 35.1219,28 34.6531,28.5156 C34.1219,29.0625 33.5594,29.2656 32.5438,29.2656 L30.6531,29.2656 Z "/><text fill="#000000" font-family="sans-serif" font-size="12" font-style="italic" lengthAdjust="spacingAndGlyphs" textLength="116" x="45.55" y="23.1387">«Flickr.Photo_tags»</text><text fill="#000000" font-family="sans-serif" font-size="12" lengthAdjust="spacingAndGlyphs" textLength="65" x="71.05" y="37.1074">Photo_tags</text><line style="stroke: #A80036; stroke-width: 1.5;" x1="8" x2="171" y1="44.9375" y2="44.9375"/><ellipse cx="18" cy="55.9375" fill="none" rx="3" ry="3" style="stroke: #038048; stroke-width: 1.0;"/><text fill="#000000" font-family="sans-serif" font-size="11" lengthAdjust="spacingAndGlyphs" textLength="25" x="27" y="59.1479">tag :</text><text fill="#000000" font-family="sans-serif" font-size="11" font-weight="bold" lengthAdjust="spacingAndGlyphs" textLength="110" x="56" y="59.1479">Sequence &lt;Tag&gt;</text><line style="stroke: #A80036; stroke-width: 1.5;" x1="8" x2="171" y1="65.7422" y2="65.7422"/><!--MD5=[37d6e5304215b5e345f427169db70937]
class _1--><rect codeLine="10" fill="#FEFECE" filter="url(#fdkjjxyvz18ia)" height="130.7656" id="_1" style="stroke: #A80036; stroke-width: 1.5;" width="137" x="21" y="134"/><ellipse cx="52.65" cy="152.9688" fill="#DA70D6" rx="11" ry="11" style="stroke: #A80036; stroke-width: 1.0;"/><path d="M50.1656,156.2656 C49.5094,156.2656 49.1188,156.5781 49.1188,157.125 C49.1188,157.375 49.2594,157.6406 49.4781,157.7969 C49.6344,157.9219 49.8531,157.9688 50.2594,157.9688 L53.7281,157.9688 C55.2125,157.9688 56.2281,157.5781 57.0563,156.6875 C57.8375,155.875 58.2438,154.8281 58.2438,153.5781 L58.2438,152.7813 C58.2438,150.1094 56.3531,148.0625 53.8688,148.0625 L50.2594,148.0625 C49.8063,148.0625 49.6813,148.0781 49.525,148.1719 C49.275,148.3281 49.1188,148.625 49.1188,148.9063 C49.1188,149.4531 49.4938,149.75 50.1656,149.75 L50.1656,156.2656 Z M51.8531,156.2656 L51.8531,149.75 L53.7281,149.75 C54.6344,149.75 55.275,150.0313 55.7906,150.625 C56.275,151.2031 56.5563,151.9531 56.5563,152.75 L56.5563,153.5313 C56.5563,154.4063 56.3219,155 55.8531,155.5156 C55.3219,156.0625 54.7594,156.2656 53.7438,156.2656 L51.8531,156.2656 Z "/><text fill="#000000" font-family="sans-serif" font-size="12" font-style="italic" lengthAdjust="spacingAndGlyphs" textLength="72" x="68.35" y="150.1387">«Flickr.Tag»</text><text fill="#000000" font-family="sans-serif" font-size="12" lengthAdjust="spacingAndGlyphs" textLength="19" x="94.85" y="164.1074">tag</text><line style="stroke: #A80036; stroke-width: 1.5;" x1="22" x2="157" y1="171.9375" y2="171.9375"/><ellipse cx="32" cy="182.9375" fill="none" rx="3" ry="3" style="stroke: #038048; stroke-width: 1.0;"/><text fill="#000000" font-family="sans-serif" font-size="11" lengthAdjust="spacingAndGlyphs" textLength="91" x="41" y="186.1479">_content : string</text><ellipse cx="32" cy="195.7422" fill="none" rx="3" ry="3" style="stroke: #038048; stroke-width: 1.0;"/><text fill="#000000" font-family="sans-serif" font-size="11" lengthAdjust="spacingAndGlyphs" textLength="78" x="41" y="198.9526">author : string</text><ellipse cx="32" cy="208.5469" fill="none" rx="3" ry="3" style="stroke: #038048; stroke-width: 1.0;"/><text fill="#000000" font-family="sans-serif" font-size="11" lengthAdjust="spacingAndGlyphs" textLength="111" x="41" y="211.7573">authorname : string</text><ellipse cx="32" cy="221.3516" fill="none" rx="3" ry="3" style="stroke: #038048; stroke-width: 1.0;"/><text fill="#000000" font-family="sans-serif" font-size="11" lengthAdjust="spacingAndGlyphs" textLength="52" x="41" y="224.562">id : string</text><ellipse cx="32" cy="234.1563" fill="none" rx="3" ry="3" style="stroke: #038048; stroke-width: 1.0;"/><text fill="#000000" font-family="sans-serif" font-size="11" lengthAdjust="spacingAndGlyphs" textLength="108" x="41" y="237.3667">machine_tag : bool</text><ellipse cx="32" cy="246.9609" fill="none" rx="3" ry="3" style="stroke: #038048; stroke-width: 1.0;"/><text fill="#000000" font-family="sans-serif" font-size="11" lengthAdjust="spacingAndGlyphs" textLength="62" x="41" y="250.1714">raw : string</text><line style="stroke: #A80036; stroke-width: 1.5;" x1="22" x2="157" y1="256.7656" y2="256.7656"/><!--MD5=[bde1413f829cc278731640fabc810278]
reverse link _0 to _1--><path codeLine="18" d="M89.5,87.353 C89.5,101.92 89.5,118.313 89.5,133.943 " fill="none" id="_0&lt;-_1" style="stroke: #A80036; stroke-width: 1.0;"/><polygon fill="#A80036" points="89.5,74.031,85.5,80.031,89.5,86.031,93.5,80.031,89.5,74.031" style="stroke: #A80036; stroke-width: 1.0;"/><text fill="#000000" font-family="sans-serif" font-size="13" lengthAdjust="spacingAndGlyphs" textLength="23" x="65.2422" y="123.0394">0..*</text><!--MD5=[3592595d2e8e34ae5158a80519da79ea]
@startuml
''''''''''''''''''''''''''''''''''''''''''
''                                      ''
''  AUTOGENERATED CODE - - DO NOT EDIT!  ''
''                                      ''
''''''''''''''''''''''''''''''''''''''''''

class "Photo_tags" as _0 << (D,orchid) Flickr.Photo_tags >> {
+ tag : **Sequence <Tag>**
}
class "tag" as _1 << (D,orchid) Flickr.Tag >> {
+ _content : string
+ author : string
+ authorname : string
+ id : string
+ machine_tag : bool
+ raw : string
}
_0 *- - "0..*" _1
@enduml

@startuml

class "Photo_tags" as _0 << (D,orchid) Flickr.Photo_tags >> {
+ tag : **Sequence <Tag>**
}
class "tag" as _1 << (D,orchid) Flickr.Tag >> {
+ _content : string
+ author : string
+ authorname : string
+ id : string
+ machine_tag : bool
+ raw : string
}
_0 *- - "0..*" _1
@enduml

PlantUML version 1.2020.16beta3(Unknown compile time)
(GPL source distribution)
Java Runtime: Java(TM) SE Runtime Environment
JVM: Java HotSpot(TM) 64-Bit Server VM
Default Encoding: UTF-8
Language: en
Country: US
--></g></svg>