<?xml version="1.0" encoding="UTF-8" standalone="no"?><svg xmlns="http://www.w3.org/2000/svg" xmlns:xlink="http://www.w3.org/1999/xlink" contentScriptType="application/ecmascript" contentStyleType="text/css" height="92px" preserveAspectRatio="none" style="width:143px;height:92px;" version="1.1" viewBox="0 0 143 92" width="143px" zoomAndPan="magnify"><defs><filter height="300%" id="ffeyfbt19kvwt" width="300%" x="-1" y="-1"><feGaussianBlur result="blurOut" stdDeviation="2.0"/><feColorMatrix in="blurOut" result="blurOut2" type="matrix" values="0 0 0 0 0 0 0 0 0 0 0 0 0 0 0 0 0 0 .4 0"/><feOffset dx="4.0" dy="4.0" in="blurOut2" result="blurOut3"/><feBlend in="SourceGraphic" in2="blurOut3" mode="normal"/></filter></defs><g><!--MD5=[f77682fd75c3e1fc6a82f566c0814d0f]
class _0--><rect codeLine="7" fill="#FEFECE" filter="url(#ffeyfbt19kvwt)" height="66.7422" id="_0" style="stroke: #A80036; stroke-width: 1.5;" width="117" x="7" y="7"/><ellipse cx="27.4" cy="25.9688" fill="#DA70D6" rx="11" ry="11" style="stroke: #A80036; stroke-width: 1.0;"/><path d="M24.9156,29.2656 C24.2594,29.2656 23.8688,29.5781 23.8688,30.125 C23.8688,30.375 24.0094,30.6406 24.2281,30.7969 C24.3844,30.9219 24.6031,30.9688 25.0094,30.9688 L28.4781,30.9688 C29.9625,30.9688 30.9781,30.5781 31.8063,29.6875 C32.5875,28.875 32.9938,27.8281 32.9938,26.5781 L32.9938,25.7813 C32.9938,23.1094 31.1031,21.0625 28.6188,21.0625 L25.0094,21.0625 C24.5563,21.0625 24.4313,21.0781 24.275,21.1719 C24.025,21.3281 23.8688,21.625 23.8688,21.9063 C23.8688,22.4531 24.2438,22.75 24.9156,22.75 L24.9156,29.2656 Z M26.6031,29.2656 L26.6031,22.75 L28.4781,22.75 C29.3844,22.75 30.025,23.0313 30.5406,23.625 C31.025,24.2031 31.3063,24.9531 31.3063,25.75 L31.3063,26.5313 C31.3063,27.4063 31.0719,28 30.6031,28.5156 C30.0719,29.0625 29.5094,29.2656 28.4938,29.2656 L26.6031,29.2656 Z "/><text fill="#000000" font-family="sans-serif" font-size="12" font-style="italic" lengthAdjust="spacingAndGlyphs" textLength="77" x="40.6" y="23.1387">«Photo_title»</text><text fill="#000000" font-family="sans-serif" font-size="12" lengthAdjust="spacingAndGlyphs" textLength="61" x="48.6" y="37.1074">Photo_title</text><line style="stroke: #A80036; stroke-width: 1.5;" x1="8" x2="123" y1="44.9375" y2="44.9375"/><ellipse cx="18" cy="55.9375" fill="none" rx="3" ry="3" style="stroke: #038048; stroke-width: 1.0;"/><text fill="#000000" font-family="sans-serif" font-size="11" lengthAdjust="spacingAndGlyphs" textLength="91" x="27" y="59.1479">_content : string</text><line style="stroke: #A80036; stroke-width: 1.5;" x1="8" x2="123" y1="65.7422" y2="65.7422"/><!--MD5=[0e51419ac6b4b4c5e401763babf9e799]
@startuml
''''''''''''''''''''''''''''''''''''''''''
''                                      ''
''  AUTOGENERATED CODE - - DO NOT EDIT!  ''
''                                      ''
''''''''''''''''''''''''''''''''''''''''''

class "Photo_title" as _0 << (D,orchid) Photo_title >> {
+ _content : string
}
@enduml

@startuml

class "Photo_title" as _0 << (D,orchid) Photo_title >> {
+ _content : string
}
@enduml

PlantUML version 1.2020.16beta3(Unknown compile time)
(GPL source distribution)
Java Runtime: Java(TM) SE Runtime Environment
JVM: Java HotSpot(TM) 64-Bit Server VM
Default Encoding: UTF-8
Language: en
Country: US
--></g></svg>