<?xml version="1.0" encoding="UTF-8" standalone="no"?><svg xmlns="http://www.w3.org/2000/svg" xmlns:xlink="http://www.w3.org/1999/xlink" contentScriptType="application/ecmascript" contentStyleType="text/css" height="156px" preserveAspectRatio="none" style="width:163px;height:156px;" version="1.1" viewBox="0 0 163 156" width="163px" zoomAndPan="magnify"><defs><filter height="300%" id="f9xvezfzqc0p0" width="300%" x="-1" y="-1"><feGaussianBlur result="blurOut" stdDeviation="2.0"/><feColorMatrix in="blurOut" result="blurOut2" type="matrix" values="0 0 0 0 0 0 0 0 0 0 0 0 0 0 0 0 0 0 .4 0"/><feOffset dx="4.0" dy="4.0" in="blurOut2" result="blurOut3"/><feBlend in="SourceGraphic" in2="blurOut3" mode="normal"/></filter></defs><g><!--MD5=[f77682fd75c3e1fc6a82f566c0814d0f]
class _0--><rect codeLine="7" fill="#FEFECE" filter="url(#f9xvezfzqc0p0)" height="130.7656" id="_0" style="stroke: #A80036; stroke-width: 1.5;" width="137" x="7" y="7"/><ellipse cx="38.65" cy="25.9688" fill="#DA70D6" rx="11" ry="11" style="stroke: #A80036; stroke-width: 1.0;"/><path d="M36.1656,29.2656 C35.5094,29.2656 35.1188,29.5781 35.1188,30.125 C35.1188,30.375 35.2594,30.6406 35.4781,30.7969 C35.6344,30.9219 35.8531,30.9688 36.2594,30.9688 L39.7281,30.9688 C41.2125,30.9688 42.2281,30.5781 43.0563,29.6875 C43.8375,28.875 44.2438,27.8281 44.2438,26.5781 L44.2438,25.7813 C44.2438,23.1094 42.3531,21.0625 39.8688,21.0625 L36.2594,21.0625 C35.8063,21.0625 35.6813,21.0781 35.525,21.1719 C35.275,21.3281 35.1188,21.625 35.1188,21.9063 C35.1188,22.4531 35.4938,22.75 36.1656,22.75 L36.1656,29.2656 Z M37.8531,29.2656 L37.8531,22.75 L39.7281,22.75 C40.6344,22.75 41.275,23.0313 41.7906,23.625 C42.275,24.2031 42.5563,24.9531 42.5563,25.75 L42.5563,26.5313 C42.5563,27.4063 42.3219,28 41.8531,28.5156 C41.3219,29.0625 40.7594,29.2656 39.7438,29.2656 L37.8531,29.2656 Z "/><text fill="#000000" font-family="sans-serif" font-size="12" font-style="italic" lengthAdjust="spacingAndGlyphs" textLength="72" x="54.35" y="23.1387">«Flickr.Tag»</text><text fill="#000000" font-family="sans-serif" font-size="12" lengthAdjust="spacingAndGlyphs" textLength="22" x="79.35" y="37.1074">Tag</text><line style="stroke: #A80036; stroke-width: 1.5;" x1="8" x2="143" y1="44.9375" y2="44.9375"/><ellipse cx="18" cy="55.9375" fill="none" rx="3" ry="3" style="stroke: #038048; stroke-width: 1.0;"/><text fill="#000000" font-family="sans-serif" font-size="11" lengthAdjust="spacingAndGlyphs" textLength="91" x="27" y="59.1479">_content : string</text><ellipse cx="18" cy="68.7422" fill="none" rx="3" ry="3" style="stroke: #038048; stroke-width: 1.0;"/><text fill="#000000" font-family="sans-serif" font-size="11" lengthAdjust="spacingAndGlyphs" textLength="78" x="27" y="71.9526">author : string</text><ellipse cx="18" cy="81.5469" fill="none" rx="3" ry="3" style="stroke: #038048; stroke-width: 1.0;"/><text fill="#000000" font-family="sans-serif" font-size="11" lengthAdjust="spacingAndGlyphs" textLength="111" x="27" y="84.7573">authorname : string</text><ellipse cx="18" cy="94.3516" fill="none" rx="3" ry="3" style="stroke: #038048; stroke-width: 1.0;"/><text fill="#000000" font-family="sans-serif" font-size="11" lengthAdjust="spacingAndGlyphs" textLength="52" x="27" y="97.562">id : string</text><ellipse cx="18" cy="107.1563" fill="none" rx="3" ry="3" style="stroke: #038048; stroke-width: 1.0;"/><text fill="#000000" font-family="sans-serif" font-size="11" lengthAdjust="spacingAndGlyphs" textLength="108" x="27" y="110.3667">machine_tag : bool</text><ellipse cx="18" cy="119.9609" fill="none" rx="3" ry="3" style="stroke: #038048; stroke-width: 1.0;"/><text fill="#000000" font-family="sans-serif" font-size="11" lengthAdjust="spacingAndGlyphs" textLength="62" x="27" y="123.1714">raw : string</text><line style="stroke: #A80036; stroke-width: 1.5;" x1="8" x2="143" y1="129.7656" y2="129.7656"/><!--MD5=[d700850d2ee96c8f933a4ad22affd474]
@startuml
''''''''''''''''''''''''''''''''''''''''''
''                                      ''
''  AUTOGENERATED CODE - - DO NOT EDIT!  ''
''                                      ''
''''''''''''''''''''''''''''''''''''''''''

class "Tag" as _0 << (D,orchid) Flickr.Tag >> {
+ _content : string
+ author : string
+ authorname : string
+ id : string
+ machine_tag : bool
+ raw : string
}
@enduml

@startuml

class "Tag" as _0 << (D,orchid) Flickr.Tag >> {
+ _content : string
+ author : string
+ authorname : string
+ id : string
+ machine_tag : bool
+ raw : string
}
@enduml

PlantUML version 1.2020.16beta3(Unknown compile time)
(GPL source distribution)
Java Runtime: Java(TM) SE Runtime Environment
JVM: Java HotSpot(TM) 64-Bit Server VM
Default Encoding: UTF-8
Language: en
Country: US
--></g></svg>