<?xml version="1.0" encoding="UTF-8" standalone="no"?><svg xmlns="http://www.w3.org/2000/svg" xmlns:xlink="http://www.w3.org/1999/xlink" contentScriptType="application/ecmascript" contentStyleType="text/css" height="156px" preserveAspectRatio="none" style="width:163px;height:156px;" version="1.1" viewBox="0 0 163 156" width="163px" zoomAndPan="magnify"><defs><filter height="300%" id="f17rrpii5jpbzp" width="300%" x="-1" y="-1"><feGaussianBlur result="blurOut" stdDeviation="2.0"/><feColorMatrix in="blurOut" result="blurOut2" type="matrix" values="0 0 0 0 0 0 0 0 0 0 0 0 0 0 0 0 0 0 .4 0"/><feOffset dx="4.0" dy="4.0" in="blurOut2" result="blurOut3"/><feBlend in="SourceGraphic" in2="blurOut3" mode="normal"/></filter></defs><g><!--MD5=[f77682fd75c3e1fc6a82f566c0814d0f]
class _0--><rect codeLine="7" fill="#FEFECE" filter="url(#f17rrpii5jpbzp)" height="130.7656" id="_0" style="stroke: #A80036; stroke-width: 1.5;" width="137" x="7" y="7"/><ellipse cx="55.25" cy="25.9688" fill="#DA70D6" rx="11" ry="11" style="stroke: #A80036; stroke-width: 1.0;"/><path d="M52.7656,29.2656 C52.1094,29.2656 51.7188,29.5781 51.7188,30.125 C51.7188,30.375 51.8594,30.6406 52.0781,30.7969 C52.2344,30.9219 52.4531,30.9688 52.8594,30.9688 L56.3281,30.9688 C57.8125,30.9688 58.8281,30.5781 59.6563,29.6875 C60.4375,28.875 60.8438,27.8281 60.8438,26.5781 L60.8438,25.7813 C60.8438,23.1094 58.9531,21.0625 56.4688,21.0625 L52.8594,21.0625 C52.4063,21.0625 52.2813,21.0781 52.125,21.1719 C51.875,21.3281 51.7188,21.625 51.7188,21.9063 C51.7188,22.4531 52.0938,22.75 52.7656,22.75 L52.7656,29.2656 Z M54.4531,29.2656 L54.4531,22.75 L56.3281,22.75 C57.2344,22.75 57.875,23.0313 58.3906,23.625 C58.875,24.2031 59.1563,24.9531 59.1563,25.75 L59.1563,26.5313 C59.1563,27.4063 58.9219,28 58.4531,28.5156 C57.9219,29.0625 57.3594,29.2656 56.3438,29.2656 L54.4531,29.2656 Z "/><text fill="#000000" font-family="sans-serif" font-size="12" font-style="italic" lengthAdjust="spacingAndGlyphs" textLength="36" x="73.75" y="23.1387">«Tag»</text><text fill="#000000" font-family="sans-serif" font-size="12" lengthAdjust="spacingAndGlyphs" textLength="22" x="80.75" y="37.1074">Tag</text><line style="stroke: #A80036; stroke-width: 1.5;" x1="8" x2="143" y1="44.9375" y2="44.9375"/><ellipse cx="18" cy="55.9375" fill="none" rx="3" ry="3" style="stroke: #038048; stroke-width: 1.0;"/><text fill="#000000" font-family="sans-serif" font-size="11" lengthAdjust="spacingAndGlyphs" textLength="91" x="27" y="59.1479">_content : string</text><ellipse cx="18" cy="68.7422" fill="none" rx="3" ry="3" style="stroke: #038048; stroke-width: 1.0;"/><text fill="#000000" font-family="sans-serif" font-size="11" lengthAdjust="spacingAndGlyphs" textLength="78" x="27" y="71.9526">author : string</text><ellipse cx="18" cy="81.5469" fill="none" rx="3" ry="3" style="stroke: #038048; stroke-width: 1.0;"/><text fill="#000000" font-family="sans-serif" font-size="11" lengthAdjust="spacingAndGlyphs" textLength="111" x="27" y="84.7573">authorname : string</text><ellipse cx="18" cy="94.3516" fill="none" rx="3" ry="3" style="stroke: #038048; stroke-width: 1.0;"/><text fill="#000000" font-family="sans-serif" font-size="11" lengthAdjust="spacingAndGlyphs" textLength="52" x="27" y="97.562">id : string</text><ellipse cx="18" cy="107.1563" fill="none" rx="3" ry="3" style="stroke: #038048; stroke-width: 1.0;"/><text fill="#000000" font-family="sans-serif" font-size="11" lengthAdjust="spacingAndGlyphs" textLength="108" x="27" y="110.3667">machine_tag : bool</text><ellipse cx="18" cy="119.9609" fill="none" rx="3" ry="3" style="stroke: #038048; stroke-width: 1.0;"/><text fill="#000000" font-family="sans-serif" font-size="11" lengthAdjust="spacingAndGlyphs" textLength="62" x="27" y="123.1714">raw : string</text><line style="stroke: #A80036; stroke-width: 1.5;" x1="8" x2="143" y1="129.7656" y2="129.7656"/><!--MD5=[93b42080acaa8163ae7ecbac39b8cf5b]
@startuml
''''''''''''''''''''''''''''''''''''''''''
''                                      ''
''  AUTOGENERATED CODE - - DO NOT EDIT!  ''
''                                      ''
''''''''''''''''''''''''''''''''''''''''''

class "Tag" as _0 << (D,orchid) Tag >> {
+ _content : string
+ author : string
+ authorname : string
+ id : string
+ machine_tag : bool
+ raw : string
}
@enduml

@startuml

class "Tag" as _0 << (D,orchid) Tag >> {
+ _content : string
+ author : string
+ authorname : string
+ id : string
+ machine_tag : bool
+ raw : string
}
@enduml

PlantUML version 1.2020.16beta3(Unknown compile time)
(GPL source distribution)
Java Runtime: Java(TM) SE Runtime Environment
JVM: Java HotSpot(TM) 64-Bit Server VM
Default Encoding: UTF-8
Language: en
Country: US
--></g></svg>