<?xml version="1.0" encoding="UTF-8" standalone="no"?><svg xmlns="http://www.w3.org/2000/svg" xmlns:xlink="http://www.w3.org/1999/xlink" contentScriptType="application/ecmascript" contentStyleType="text/css" height="105px" preserveAspectRatio="none" style="width:143px;height:105px;" version="1.1" viewBox="0 0 143 105" width="143px" zoomAndPan="magnify"><defs><filter height="300%" id="f799rnagq8ag7" width="300%" x="-1" y="-1"><feGaussianBlur result="blurOut" stdDeviation="2.0"/><feColorMatrix in="blurOut" result="blurOut2" type="matrix" values="0 0 0 0 0 0 0 0 0 0 0 0 0 0 0 0 0 0 .4 0"/><feOffset dx="4.0" dy="4.0" in="blurOut2" result="blurOut3"/><feBlend in="SourceGraphic" in2="blurOut3" mode="normal"/></filter></defs><g><!--MD5=[f77682fd75c3e1fc6a82f566c0814d0f]
class _0--><rect codeLine="7" fill="#FEFECE" filter="url(#f799rnagq8ag7)" height="79.5469" id="_0" style="stroke: #A80036; stroke-width: 1.5;" width="117" x="7" y="7"/><ellipse cx="28.75" cy="25.9688" fill="#DA70D6" rx="11" ry="11" style="stroke: #A80036; stroke-width: 1.0;"/><path d="M26.2656,29.2656 C25.6094,29.2656 25.2188,29.5781 25.2188,30.125 C25.2188,30.375 25.3594,30.6406 25.5781,30.7969 C25.7344,30.9219 25.9531,30.9688 26.3594,30.9688 L29.8281,30.9688 C31.3125,30.9688 32.3281,30.5781 33.1563,29.6875 C33.9375,28.875 34.3438,27.8281 34.3438,26.5781 L34.3438,25.7813 C34.3438,23.1094 32.4531,21.0625 29.9688,21.0625 L26.3594,21.0625 C25.9063,21.0625 25.7813,21.0781 25.625,21.1719 C25.375,21.3281 25.2188,21.625 25.2188,21.9063 C25.2188,22.4531 25.5938,22.75 26.2656,22.75 L26.2656,29.2656 Z M27.9531,29.2656 L27.9531,22.75 L29.8281,22.75 C30.7344,22.75 31.375,23.0313 31.8906,23.625 C32.375,24.2031 32.6563,24.9531 32.6563,25.75 L32.6563,26.5313 C32.6563,27.4063 32.4219,28 31.9531,28.5156 C31.4219,29.0625 30.8594,29.2656 29.8438,29.2656 L27.9531,29.2656 Z "/><text fill="#000000" font-family="sans-serif" font-size="12" font-style="italic" lengthAdjust="spacingAndGlyphs" textLength="74" x="42.25" y="23.1387">«Flickr.URL»</text><text fill="#000000" font-family="sans-serif" font-size="12" lengthAdjust="spacingAndGlyphs" textLength="22" x="68.25" y="37.1074">URL</text><line style="stroke: #A80036; stroke-width: 1.5;" x1="8" x2="123" y1="44.9375" y2="44.9375"/><ellipse cx="18" cy="55.9375" fill="none" rx="3" ry="3" style="stroke: #038048; stroke-width: 1.0;"/><text fill="#000000" font-family="sans-serif" font-size="11" lengthAdjust="spacingAndGlyphs" textLength="91" x="27" y="59.1479">_content : string</text><ellipse cx="18" cy="68.7422" fill="none" rx="3" ry="3" style="stroke: #038048; stroke-width: 1.0;"/><text fill="#000000" font-family="sans-serif" font-size="11" lengthAdjust="spacingAndGlyphs" textLength="68" x="27" y="71.9526">type : string</text><line style="stroke: #A80036; stroke-width: 1.5;" x1="8" x2="123" y1="78.5469" y2="78.5469"/><!--MD5=[f1296f150ad97bee7527836635b42970]
@startuml
''''''''''''''''''''''''''''''''''''''''''
''                                      ''
''  AUTOGENERATED CODE - - DO NOT EDIT!  ''
''                                      ''
''''''''''''''''''''''''''''''''''''''''''

class "URL" as _0 << (D,orchid) Flickr.URL >> {
+ _content : string
+ type : string
}
@enduml

@startuml

class "URL" as _0 << (D,orchid) Flickr.URL >> {
+ _content : string
+ type : string
}
@enduml

PlantUML version 1.2020.16beta3(Unknown compile time)
(GPL source distribution)
Java Runtime: Java(TM) SE Runtime Environment
JVM: Java HotSpot(TM) 64-Bit Server VM
Default Encoding: UTF-8
Language: en
Country: US
--></g></svg>