<?xml version="1.0" encoding="UTF-8" standalone="no"?><svg xmlns="http://www.w3.org/2000/svg" xmlns:xlink="http://www.w3.org/1999/xlink" contentScriptType="application/ecmascript" contentStyleType="text/css" height="105px" preserveAspectRatio="none" style="width:143px;height:105px;" version="1.1" viewBox="0 0 143 105" width="143px" zoomAndPan="magnify"><defs><filter height="300%" id="fpm4k3wa3jd2i" width="300%" x="-1" y="-1"><feGaussianBlur result="blurOut" stdDeviation="2.0"/><feColorMatrix in="blurOut" result="blurOut2" type="matrix" values="0 0 0 0 0 0 0 0 0 0 0 0 0 0 0 0 0 0 .4 0"/><feOffset dx="4.0" dy="4.0" in="blurOut2" result="blurOut3"/><feBlend in="SourceGraphic" in2="blurOut3" mode="normal"/></filter></defs><g><!--MD5=[f77682fd75c3e1fc6a82f566c0814d0f]
class _0--><rect codeLine="7" fill="#FEFECE" filter="url(#fpm4k3wa3jd2i)" height="79.5469" id="_0" style="stroke: #A80036; stroke-width: 1.5;" width="117" x="7" y="7"/><ellipse cx="44.95" cy="25.9688" fill="#DA70D6" rx="11" ry="11" style="stroke: #A80036; stroke-width: 1.0;"/><path d="M42.4656,29.2656 C41.8094,29.2656 41.4188,29.5781 41.4188,30.125 C41.4188,30.375 41.5594,30.6406 41.7781,30.7969 C41.9344,30.9219 42.1531,30.9688 42.5594,30.9688 L46.0281,30.9688 C47.5125,30.9688 48.5281,30.5781 49.3563,29.6875 C50.1375,28.875 50.5438,27.8281 50.5438,26.5781 L50.5438,25.7813 C50.5438,23.1094 48.6531,21.0625 46.1688,21.0625 L42.5594,21.0625 C42.1063,21.0625 41.9813,21.0781 41.825,21.1719 C41.575,21.3281 41.4188,21.625 41.4188,21.9063 C41.4188,22.4531 41.7938,22.75 42.4656,22.75 L42.4656,29.2656 Z M44.1531,29.2656 L44.1531,22.75 L46.0281,22.75 C46.9344,22.75 47.575,23.0313 48.0906,23.625 C48.575,24.2031 48.8563,24.9531 48.8563,25.75 L48.8563,26.5313 C48.8563,27.4063 48.6219,28 48.1531,28.5156 C47.6219,29.0625 47.0594,29.2656 46.0438,29.2656 L44.1531,29.2656 Z "/><text fill="#000000" font-family="sans-serif" font-size="12" font-style="italic" lengthAdjust="spacingAndGlyphs" textLength="38" x="62.05" y="23.1387">«URL»</text><text fill="#000000" font-family="sans-serif" font-size="12" lengthAdjust="spacingAndGlyphs" textLength="22" x="70.05" y="37.1074">URL</text><line style="stroke: #A80036; stroke-width: 1.5;" x1="8" x2="123" y1="44.9375" y2="44.9375"/><ellipse cx="18" cy="55.9375" fill="none" rx="3" ry="3" style="stroke: #038048; stroke-width: 1.0;"/><text fill="#000000" font-family="sans-serif" font-size="11" lengthAdjust="spacingAndGlyphs" textLength="91" x="27" y="59.1479">_content : string</text><ellipse cx="18" cy="68.7422" fill="none" rx="3" ry="3" style="stroke: #038048; stroke-width: 1.0;"/><text fill="#000000" font-family="sans-serif" font-size="11" lengthAdjust="spacingAndGlyphs" textLength="68" x="27" y="71.9526">type : string</text><line style="stroke: #A80036; stroke-width: 1.5;" x1="8" x2="123" y1="78.5469" y2="78.5469"/><!--MD5=[8c718633392c858e323ddc2a248a8978]
@startuml
''''''''''''''''''''''''''''''''''''''''''
''                                      ''
''  AUTOGENERATED CODE - - DO NOT EDIT!  ''
''                                      ''
''''''''''''''''''''''''''''''''''''''''''

class "URL" as _0 << (D,orchid) URL >> {
+ _content : string
+ type : string
}
@enduml

@startuml

class "URL" as _0 << (D,orchid) URL >> {
+ _content : string
+ type : string
}
@enduml

PlantUML version 1.2020.16beta3(Unknown compile time)
(GPL source distribution)
Java Runtime: Java(TM) SE Runtime Environment
JVM: Java HotSpot(TM) 64-Bit Server VM
Default Encoding: UTF-8
Language: en
Country: US
--></g></svg>