<?xml version="1.0" encoding="UTF-8" standalone="no"?><svg xmlns="http://www.w3.org/2000/svg" xmlns:xlink="http://www.w3.org/1999/xlink" contentScriptType="application/ecmascript" contentStyleType="text/css" height="78px" preserveAspectRatio="none" style="width:131px;height:78px;" version="1.1" viewBox="0 0 131 78" width="131px" zoomAndPan="magnify"><defs><filter height="300%" id="f2kedw9llsk84" width="300%" x="-1" y="-1"><feGaussianBlur result="blurOut" stdDeviation="2.0"/><feColorMatrix in="blurOut" result="blurOut2" type="matrix" values="0 0 0 0 0 0 0 0 0 0 0 0 0 0 0 0 0 0 .4 0"/><feOffset dx="4.0" dy="4.0" in="blurOut2" result="blurOut3"/><feBlend in="SourceGraphic" in2="blurOut3" mode="normal"/></filter></defs><g><!--MD5=[f77682fd75c3e1fc6a82f566c0814d0f]
class _0--><rect fill="#FEFECE" filter="url(#f2kedw9llsk84)" height="60.8047" id="_0" style="stroke: #A80036; stroke-width: 1.5;" width="113" x="7" y="7"/><ellipse cx="32.8" cy="23" fill="#DA70D6" rx="11" ry="11" style="stroke: #A80036; stroke-width: 1.0;"/><path d="M30.3156,26.2969 C29.6594,26.2969 29.2687,26.6094 29.2687,27.1563 C29.2687,27.4063 29.4094,27.6719 29.6281,27.8281 C29.7844,27.9531 30.0031,28 30.4094,28 L33.8781,28 C35.3625,28 36.3781,27.6094 37.2063,26.7188 C37.9875,25.9063 38.3938,24.8594 38.3938,23.6094 L38.3938,22.8125 C38.3938,20.1406 36.5031,18.0938 34.0188,18.0938 L30.4094,18.0938 C29.9562,18.0938 29.8312,18.1094 29.675,18.2031 C29.425,18.3594 29.2687,18.6563 29.2687,18.9375 C29.2687,19.4844 29.6437,19.7813 30.3156,19.7813 L30.3156,26.2969 Z M32.0031,26.2969 L32.0031,19.7813 L33.8781,19.7813 C34.7844,19.7813 35.425,20.0625 35.9406,20.6563 C36.425,21.2344 36.7063,21.9844 36.7063,22.7813 L36.7063,23.5625 C36.7063,24.4375 36.4719,25.0313 36.0031,25.5469 C35.4719,26.0938 34.9094,26.2969 33.8938,26.2969 L32.0031,26.2969 Z "/><text fill="#000000" font-family="sans-serif" font-size="12" lengthAdjust="spacingAndGlyphs" textLength="57" x="49.2" y="27.1543">Welcome</text><line style="stroke: #A80036; stroke-width: 1.5;" x1="8" x2="119" y1="39" y2="39"/><ellipse cx="18" cy="50" fill="none" rx="3" ry="3" style="stroke: #038048; stroke-width: 1.0;"/><text fill="#000000" font-family="sans-serif" font-size="11" lengthAdjust="spacingAndGlyphs" textLength="87" x="27" y="53.2104">Content : string</text><line style="stroke: #A80036; stroke-width: 1.5;" x1="8" x2="119" y1="59.8047" y2="59.8047"/><!--MD5=[04854216013df743a598b6a3ecc81471]
@startuml
''''''''''''''''''''''''''''''''''''''''''
''                                      ''
''  AUTOGENERATED CODE - - DO NOT EDIT!  ''
''                                      ''
''''''''''''''''''''''''''''''''''''''''''

class "Welcome" as _0 << (D,orchid) >> {
+ Content : string
}
@enduml

@startuml

class "Welcome" as _0 << (D,orchid) >> {
+ Content : string
}
@enduml

PlantUML version 1.2020.11(Sat May 30 10:13:43 UTC 2020)
(GPL source distribution)
Java Runtime: Java(TM) SE Runtime Environment
JVM: Java HotSpot(TM) 64-Bit Server VM
Default Encoding: UTF-8
Language: en
Country: US
--></g></svg>