<?xml version="1.0" encoding="UTF-8" standalone="no"?><svg xmlns="http://www.w3.org/2000/svg" xmlns:xlink="http://www.w3.org/1999/xlink" contentScriptType="application/ecmascript" contentStyleType="text/css" height="92px" preserveAspectRatio="none" style="width:227px;height:92px;" version="1.1" viewBox="0 0 227 92" width="227px" zoomAndPan="magnify"><defs><filter height="300%" id="f1iwstn0c6rcw1" width="300%" x="-1" y="-1"><feGaussianBlur result="blurOut" stdDeviation="2.0"/><feColorMatrix in="blurOut" result="blurOut2" type="matrix" values="0 0 0 0 0 0 0 0 0 0 0 0 0 0 0 0 0 0 .4 0"/><feOffset dx="4.0" dy="4.0" in="blurOut2" result="blurOut3"/><feBlend in="SourceGraphic" in2="blurOut3" mode="normal"/></filter></defs><g><!--MD5=[f77682fd75c3e1fc6a82f566c0814d0f]
class _0--><rect codeLine="7" fill="#FEFECE" filter="url(#f1iwstn0c6rcw1)" height="66.7422" id="_0" style="stroke: #A80036; stroke-width: 1.5;" width="201" x="7" y="7"/><ellipse cx="60.25" cy="25.9688" fill="#DA70D6" rx="11" ry="11" style="stroke: #A80036; stroke-width: 1.0;"/><path d="M57.7656,29.2656 C57.1094,29.2656 56.7188,29.5781 56.7188,30.125 C56.7188,30.375 56.8594,30.6406 57.0781,30.7969 C57.2344,30.9219 57.4531,30.9688 57.8594,30.9688 L61.3281,30.9688 C62.8125,30.9688 63.8281,30.5781 64.6563,29.6875 C65.4375,28.875 65.8438,27.8281 65.8438,26.5781 L65.8438,25.7813 C65.8438,23.1094 63.9531,21.0625 61.4688,21.0625 L57.8594,21.0625 C57.4063,21.0625 57.2813,21.0781 57.125,21.1719 C56.875,21.3281 56.7188,21.625 56.7188,21.9063 C56.7188,22.4531 57.0938,22.75 57.7656,22.75 L57.7656,29.2656 Z M59.4531,29.2656 L59.4531,22.75 L61.3281,22.75 C62.2344,22.75 62.875,23.0313 63.3906,23.625 C63.875,24.2031 64.1563,24.9531 64.1563,25.75 L64.1563,26.5313 C64.1563,27.4063 63.9219,28 63.4531,28.5156 C62.9219,29.0625 62.3594,29.2656 61.3438,29.2656 L59.4531,29.2656 Z "/><text fill="#000000" font-family="sans-serif" font-size="12" font-style="italic" lengthAdjust="spacingAndGlyphs" textLength="90" x="78.75" y="23.1387">«GenericError»</text><text fill="#000000" font-family="sans-serif" font-size="12" lengthAdjust="spacingAndGlyphs" textLength="77" x="85.25" y="37.1074">GenericError</text><line style="stroke: #A80036; stroke-width: 1.5;" x1="8" x2="207" y1="44.9375" y2="44.9375"/><ellipse cx="18" cy="55.9375" fill="none" rx="3" ry="3" style="stroke: #038048; stroke-width: 1.0;"/><text fill="#000000" font-family="sans-serif" font-size="11" lengthAdjust="spacingAndGlyphs" textLength="41" x="27" y="59.1479">status :</text><text fill="#000000" font-family="sans-serif" font-size="11" font-weight="bold" lengthAdjust="spacingAndGlyphs" textLength="130" x="72" y="59.1479">GenericErrorStatus</text><line style="stroke: #A80036; stroke-width: 1.5;" x1="8" x2="207" y1="65.7422" y2="65.7422"/><!--MD5=[318d69b594fc25828d96332599ac73d8]
@startuml
''''''''''''''''''''''''''''''''''''''''''
''                                      ''
''  AUTOGENERATED CODE - - DO NOT EDIT!  ''
''                                      ''
''''''''''''''''''''''''''''''''''''''''''

class "GenericError" as _0 << (D,orchid) GenericError >> {
+ status : **GenericErrorStatus**
}
@enduml

@startuml

class "GenericError" as _0 << (D,orchid) GenericError >> {
+ status : **GenericErrorStatus**
}
@enduml

PlantUML version 1.2020.16beta3(Unknown compile time)
(GPL source distribution)
Java Runtime: Java(TM) SE Runtime Environment
JVM: Java HotSpot(TM) 64-Bit Server VM
Default Encoding: UTF-8
Language: en
Country: US
--></g></svg>