<?xml version="1.0" encoding="UTF-8" standalone="no"?><svg xmlns="http://www.w3.org/2000/svg" xmlns:xlink="http://www.w3.org/1999/xlink" contentScriptType="application/ecmascript" contentStyleType="text/css" height="232px" preserveAspectRatio="none" style="width:240px;height:232px;" version="1.1" viewBox="0 0 240 232" width="240px" zoomAndPan="magnify"><defs><filter height="300%" id="f1y268g5i6n2ox" width="300%" x="-1" y="-1"><feGaussianBlur result="blurOut" stdDeviation="2.0"/><feColorMatrix in="blurOut" result="blurOut2" type="matrix" values="0 0 0 0 0 0 0 0 0 0 0 0 0 0 0 0 0 0 .4 0"/><feOffset dx="4.0" dy="4.0" in="blurOut2" result="blurOut3"/><feBlend in="SourceGraphic" in2="blurOut3" mode="normal"/></filter></defs><g><!--MD5=[f77682fd75c3e1fc6a82f566c0814d0f]
class _0--><rect codeLine="7" fill="#FEFECE" filter="url(#f1y268g5i6n2ox)" height="66.7422" id="_0" style="stroke: #A80036; stroke-width: 1.5;" width="201" x="13.5" y="7"/><ellipse cx="40.2" cy="25.9688" fill="#DA70D6" rx="11" ry="11" style="stroke: #A80036; stroke-width: 1.0;"/><path d="M37.7156,29.2656 C37.0594,29.2656 36.6688,29.5781 36.6688,30.125 C36.6688,30.375 36.8094,30.6406 37.0281,30.7969 C37.1844,30.9219 37.4031,30.9688 37.8094,30.9688 L41.2781,30.9688 C42.7625,30.9688 43.7781,30.5781 44.6063,29.6875 C45.3875,28.875 45.7938,27.8281 45.7938,26.5781 L45.7938,25.7813 C45.7938,23.1094 43.9031,21.0625 41.4188,21.0625 L37.8094,21.0625 C37.3563,21.0625 37.2313,21.0781 37.075,21.1719 C36.825,21.3281 36.6688,21.625 36.6688,21.9063 C36.6688,22.4531 37.0438,22.75 37.7156,22.75 L37.7156,29.2656 Z M39.4031,29.2656 L39.4031,22.75 L41.2781,22.75 C42.1844,22.75 42.825,23.0313 43.3406,23.625 C43.825,24.2031 44.1063,24.9531 44.1063,25.75 L44.1063,26.5313 C44.1063,27.4063 43.8719,28 43.4031,28.5156 C42.8719,29.0625 42.3094,29.2656 41.2938,29.2656 L39.4031,29.2656 Z "/><text fill="#000000" font-family="sans-serif" font-size="12" font-style="italic" lengthAdjust="spacingAndGlyphs" textLength="147" x="54.8" y="23.1387">«Petdemo.GenericError»</text><text fill="#000000" font-family="sans-serif" font-size="12" lengthAdjust="spacingAndGlyphs" textLength="77" x="89.8" y="37.1074">GenericError</text><line style="stroke: #A80036; stroke-width: 1.5;" x1="14.5" x2="213.5" y1="44.9375" y2="44.9375"/><ellipse cx="24.5" cy="55.9375" fill="none" rx="3" ry="3" style="stroke: #038048; stroke-width: 1.0;"/><text fill="#000000" font-family="sans-serif" font-size="11" lengthAdjust="spacingAndGlyphs" textLength="41" x="33.5" y="59.1479">status :</text><text fill="#000000" font-family="sans-serif" font-size="11" font-weight="bold" lengthAdjust="spacingAndGlyphs" textLength="130" x="78.5" y="59.1479">GenericErrorStatus</text><line style="stroke: #A80036; stroke-width: 1.5;" x1="14.5" x2="213.5" y1="65.7422" y2="65.7422"/><!--MD5=[37d6e5304215b5e345f427169db70937]
class _1--><rect codeLine="10" fill="#FEFECE" filter="url(#f1y268g5i6n2ox)" height="79.5469" id="_1" style="stroke: #A80036; stroke-width: 1.5;" width="214" x="7" y="134"/><ellipse cx="22" cy="152.9688" fill="#DA70D6" rx="11" ry="11" style="stroke: #A80036; stroke-width: 1.0;"/><path d="M19.5156,156.2656 C18.8594,156.2656 18.4688,156.5781 18.4688,157.125 C18.4688,157.375 18.6094,157.6406 18.8281,157.7969 C18.9844,157.9219 19.2031,157.9688 19.6094,157.9688 L23.0781,157.9688 C24.5625,157.9688 25.5781,157.5781 26.4063,156.6875 C27.1875,155.875 27.5938,154.8281 27.5938,153.5781 L27.5938,152.7813 C27.5938,150.1094 25.7031,148.0625 23.2188,148.0625 L19.6094,148.0625 C19.1563,148.0625 19.0313,148.0781 18.875,148.1719 C18.625,148.3281 18.4688,148.625 18.4688,148.9063 C18.4688,149.4531 18.8438,149.75 19.5156,149.75 L19.5156,156.2656 Z M21.2031,156.2656 L21.2031,149.75 L23.0781,149.75 C23.9844,149.75 24.625,150.0313 25.1406,150.625 C25.625,151.2031 25.9063,151.9531 25.9063,152.75 L25.9063,153.5313 C25.9063,154.4063 25.6719,155 25.2031,155.5156 C24.6719,156.0625 24.1094,156.2656 23.0938,156.2656 L21.2031,156.2656 Z "/><text fill="#000000" font-family="sans-serif" font-size="12" font-style="italic" lengthAdjust="spacingAndGlyphs" textLength="186" x="34" y="150.1387">«Petdemo.GenericErrorStatus»</text><text fill="#000000" font-family="sans-serif" font-size="12" lengthAdjust="spacingAndGlyphs" textLength="36" x="109" y="164.1074">status</text><line style="stroke: #A80036; stroke-width: 1.5;" x1="8" x2="220" y1="171.9375" y2="171.9375"/><ellipse cx="18" cy="182.9375" fill="none" rx="3" ry="3" style="stroke: #038048; stroke-width: 1.0;"/><text fill="#000000" font-family="sans-serif" font-size="11" lengthAdjust="spacingAndGlyphs" textLength="70" x="27" y="186.1479">code : string</text><ellipse cx="18" cy="195.7422" fill="none" rx="3" ry="3" style="stroke: #038048; stroke-width: 1.0;"/><text fill="#000000" font-family="sans-serif" font-size="11" lengthAdjust="spacingAndGlyphs" textLength="104" x="27" y="198.9526">description : string</text><line style="stroke: #A80036; stroke-width: 1.5;" x1="8" x2="220" y1="205.5469" y2="205.5469"/><!--MD5=[bde1413f829cc278731640fabc810278]
reverse link _0 to _1--><path codeLine="14" d="M114,87.38 C114,102.533 114,119.2407 114,133.8433 " fill="none" id="_0&lt;-_1" style="stroke: #A80036; stroke-width: 1.0;"/><polygon fill="#A80036" points="114,74.006,110,80.006,114,86.006,118,80.006,114,74.006" style="stroke: #A80036; stroke-width: 1.0;"/><text fill="#000000" font-family="sans-serif" font-size="13" lengthAdjust="spacingAndGlyphs" textLength="24" x="83.6813" y="123.0656">1..1</text><!--MD5=[5df4a46ae7c5f5c8caa6f8601eced0e4]
@startuml
''''''''''''''''''''''''''''''''''''''''''
''                                      ''
''  AUTOGENERATED CODE - - DO NOT EDIT!  ''
''                                      ''
''''''''''''''''''''''''''''''''''''''''''

class "GenericError" as _0 << (D,orchid) Petdemo.GenericError >> {
+ status : **GenericErrorStatus**
}
class "status" as _1 << (D,orchid) Petdemo.GenericErrorStatus >> {
+ code : string
+ description : string
}
_0 *- - "1..1 " _1
@enduml

@startuml

class "GenericError" as _0 << (D,orchid) Petdemo.GenericError >> {
+ status : **GenericErrorStatus**
}
class "status" as _1 << (D,orchid) Petdemo.GenericErrorStatus >> {
+ code : string
+ description : string
}
_0 *- - "1..1 " _1
@enduml

PlantUML version 1.2020.16beta3(Unknown compile time)
(GPL source distribution)
Java Runtime: Java(TM) SE Runtime Environment
JVM: Java HotSpot(TM) 64-Bit Server VM
Default Encoding: UTF-8
Language: en
Country: US
--></g></svg>