<?xml version="1.0" encoding="UTF-8" standalone="no"?><svg xmlns="http://www.w3.org/2000/svg" xmlns:xlink="http://www.w3.org/1999/xlink" contentScriptType="application/ecmascript" contentStyleType="text/css" height="560px" preserveAspectRatio="none" style="width:499px;height:560px;" version="1.1" viewBox="0 0 499 560" width="499px" zoomAndPan="magnify"><defs><filter height="300%" id="f14vmicr2x5g4a" width="300%" x="-1" y="-1"><feGaussianBlur result="blurOut" stdDeviation="2.0"/><feColorMatrix in="blurOut" result="blurOut2" type="matrix" values="0 0 0 0 0 0 0 0 0 0 0 0 0 0 0 0 0 0 .4 0"/><feOffset dx="4.0" dy="4.0" in="blurOut2" result="blurOut3"/><feBlend in="SourceGraphic" in2="blurOut3" mode="normal"/></filter></defs><g><text fill="#000000" font-family="sans-serif" font-size="18" lengthAdjust="spacingAndGlyphs" textLength="308" x="91.25" y="26.708">Petdemo &lt;- GET /random-pet-pic</text><rect fill="#FFFFFF" filter="url(#f14vmicr2x5g4a)" height="319.4609" style="stroke: #A80036; stroke-width: 1.0;" width="10" x="155" y="160.5156"/><rect fill="#FFFFFF" filter="url(#f14vmicr2x5g4a)" height="58.2656" style="stroke: #A80036; stroke-width: 1.0;" width="10" x="388" y="189.6484"/><rect fill="#FFFFFF" filter="url(#f14vmicr2x5g4a)" height="29.1328" style="stroke: #A80036; stroke-width: 1.0;" width="10" x="455" y="277.0469"/><line style="stroke: #A80036; stroke-width: 1.0; stroke-dasharray: 5.0,5.0;" x1="160" x2="160" y1="86.25" y2="497.9766"/><line style="stroke: #A80036; stroke-width: 1.0; stroke-dasharray: 5.0,5.0;" x1="392.5" x2="392.5" y1="86.25" y2="497.9766"/><line style="stroke: #A80036; stroke-width: 1.0; stroke-dasharray: 5.0,5.0;" x1="459.5" x2="459.5" y1="86.25" y2="497.9766"/><text fill="#000000" font-family="sans-serif" font-size="14" lengthAdjust="spacingAndGlyphs" textLength="66" x="124" y="82.9482">Petdemo</text><ellipse cx="160" cy="53.9531" fill="#FEFECE" filter="url(#f14vmicr2x5g4a)" rx="12" ry="12" style="stroke: #A80036; stroke-width: 2.0;"/><polygon fill="#A80036" points="156,41.9531,162,36.9531,160,41.9531,162,46.9531,156,41.9531" style="stroke: #A80036; stroke-width: 1.0;"/><text fill="#000000" font-family="sans-serif" font-size="14" lengthAdjust="spacingAndGlyphs" textLength="66" x="124" y="509.9717">Petdemo</text><ellipse cx="160" cy="529.2734" fill="#FEFECE" filter="url(#f14vmicr2x5g4a)" rx="12" ry="12" style="stroke: #A80036; stroke-width: 2.0;"/><polygon fill="#A80036" points="156,517.2734,162,512.2734,160,517.2734,162,522.2734,156,517.2734" style="stroke: #A80036; stroke-width: 1.0;"/><text fill="#000000" font-family="sans-serif" font-size="14" lengthAdjust="spacingAndGlyphs" textLength="63" x="358.5" y="82.9482">Petstore</text><ellipse cx="393" cy="53.9531" fill="#FEFECE" filter="url(#f14vmicr2x5g4a)" rx="12" ry="12" style="stroke: #A80036; stroke-width: 2.0;"/><polygon fill="#A80036" points="389,41.9531,395,36.9531,393,41.9531,395,46.9531,389,41.9531" style="stroke: #A80036; stroke-width: 1.0;"/><text fill="#000000" font-family="sans-serif" font-size="14" lengthAdjust="spacingAndGlyphs" textLength="63" x="358.5" y="509.9717">Petstore</text><ellipse cx="393" cy="529.2734" fill="#FEFECE" filter="url(#f14vmicr2x5g4a)" rx="12" ry="12" style="stroke: #A80036; stroke-width: 2.0;"/><polygon fill="#A80036" points="389,517.2734,395,512.2734,393,517.2734,395,522.2734,389,517.2734" style="stroke: #A80036; stroke-width: 1.0;"/><text fill="#000000" font-family="sans-serif" font-size="14" lengthAdjust="spacingAndGlyphs" textLength="39" x="437.5" y="82.9482">Flickr</text><ellipse cx="460" cy="53.9531" fill="#FEFECE" filter="url(#f14vmicr2x5g4a)" rx="12" ry="12" style="stroke: #A80036; stroke-width: 2.0;"/><polygon fill="#A80036" points="456,41.9531,462,36.9531,460,41.9531,462,46.9531,456,41.9531" style="stroke: #A80036; stroke-width: 1.0;"/><text fill="#000000" font-family="sans-serif" font-size="14" lengthAdjust="spacingAndGlyphs" textLength="39" x="437.5" y="509.9717">Flickr</text><ellipse cx="460" cy="529.2734" fill="#FEFECE" filter="url(#f14vmicr2x5g4a)" rx="12" ry="12" style="stroke: #A80036; stroke-width: 2.0;"/><polygon fill="#A80036" points="456,517.2734,462,512.2734,460,517.2734,462,522.2734,456,517.2734" style="stroke: #A80036; stroke-width: 1.0;"/><rect fill="#FFFFFF" filter="url(#f14vmicr2x5g4a)" height="319.4609" style="stroke: #A80036; stroke-width: 1.0;" width="10" x="155" y="160.5156"/><rect fill="#FFFFFF" filter="url(#f14vmicr2x5g4a)" height="58.2656" style="stroke: #A80036; stroke-width: 1.0;" width="10" x="388" y="189.6484"/><rect fill="#FFFFFF" filter="url(#f14vmicr2x5g4a)" height="29.1328" style="stroke: #A80036; stroke-width: 1.0;" width="10" x="455" y="277.0469"/><rect fill="#EEEEEE" filter="url(#f14vmicr2x5g4a)" height="3" style="stroke: #EEEEEE; stroke-width: 1.0;" width="484.5" x="3" y="116.8164"/><line style="stroke: #000000; stroke-width: 1.0;" x1="3" x2="487.5" y1="116.8164" y2="116.8164"/><line style="stroke: #000000; stroke-width: 1.0;" x1="3" x2="487.5" y1="119.8164" y2="119.8164"/><rect fill="#EEEEEE" filter="url(#f14vmicr2x5g4a)" height="23.1328" style="stroke: #000000; stroke-width: 2.0;" width="272" x="109.25" y="106.25"/><text fill="#000000" font-family="sans-serif" font-size="13" font-weight="bold" lengthAdjust="spacingAndGlyphs" textLength="253" x="115.25" y="122.3169">Petdemo &lt;- GET /random-pet-pic</text><polygon fill="#A80036" points="143,156.5156,153,160.5156,143,164.5156,147,160.5156" style="stroke: #A80036; stroke-width: 1.0;"/><line style="stroke: #A80036; stroke-width: 1.0;" x1="3" x2="149" y1="160.5156" y2="160.5156"/><text fill="#000000" font-family="sans-serif" font-size="13" lengthAdjust="spacingAndGlyphs" textLength="133" x="10" y="155.4497">GET /random-pet-pic</text><polygon fill="#A80036" points="376,185.6484,386,189.6484,376,193.6484,380,189.6484" style="stroke: #A80036; stroke-width: 1.0;"/><line style="stroke: #A80036; stroke-width: 1.0;" x1="165" x2="382" y1="189.6484" y2="189.6484"/><text fill="#000000" font-family="sans-serif" font-size="13" lengthAdjust="spacingAndGlyphs" textLength="55" x="172" y="184.5825">GET /pet</text><polygon fill="#A80036" points="176,214.7813,166,218.7813,176,222.7813,172,218.7813" style="stroke: #A80036; stroke-width: 1.0;"/><line style="stroke: #A80036; stroke-width: 1.0; stroke-dasharray: 2.0,2.0;" x1="170" x2="387" y1="218.7813" y2="218.7813"/><text fill="#000000" font-family="sans-serif" font-size="13" lengthAdjust="spacingAndGlyphs" textLength="31" x="182" y="213.7153">Error</text><polygon fill="#A80036" points="176,243.9141,166,247.9141,176,251.9141,172,247.9141" style="stroke: #A80036; stroke-width: 1.0;"/><line style="stroke: #A80036; stroke-width: 1.0; stroke-dasharray: 2.0,2.0;" x1="170" x2="392" y1="247.9141" y2="247.9141"/><text fill="#000000" font-family="sans-serif" font-size="13" lengthAdjust="spacingAndGlyphs" textLength="21" x="182" y="242.8481">Pet</text><polygon fill="#A80036" points="443,273.0469,453,277.0469,443,281.0469,447,277.0469" style="stroke: #A80036; stroke-width: 1.0;"/><line style="stroke: #A80036; stroke-width: 1.0;" x1="165" x2="449" y1="277.0469" y2="277.0469"/><text fill="#000000" font-family="sans-serif" font-size="13" lengthAdjust="spacingAndGlyphs" textLength="59" x="172" y="271.981">GET /rest</text><polygon fill="#A80036" points="176,302.1797,166,306.1797,176,310.1797,172,306.1797" style="stroke: #A80036; stroke-width: 1.0;"/><line style="stroke: #A80036; stroke-width: 1.0; stroke-dasharray: 2.0,2.0;" x1="170" x2="459" y1="306.1797" y2="306.1797"/><text fill="#000000" font-family="sans-serif" font-size="13" lengthAdjust="spacingAndGlyphs" textLength="97" x="182" y="301.1138">PhotoResource</text><line style="stroke: #A80036; stroke-width: 1.0;" x1="165" x2="207" y1="350.4453" y2="350.4453"/><line style="stroke: #A80036; stroke-width: 1.0;" x1="207" x2="207" y1="350.4453" y2="363.4453"/><line style="stroke: #A80036; stroke-width: 1.0;" x1="166" x2="207" y1="363.4453" y2="363.4453"/><polygon fill="#A80036" points="176,359.4453,166,363.4453,176,367.4453,172,363.4453" style="stroke: #A80036; stroke-width: 1.0;"/><text fill="#000000" font-family="sans-serif" font-size="13" lengthAdjust="spacingAndGlyphs" textLength="205" x="172" y="330.2466">| Get a random pet pic from the</text><text fill="#000000" font-family="sans-serif" font-size="13" lengthAdjust="spacingAndGlyphs" textLength="54" x="172" y="345.3794">petstore</text><polygon fill="#A80036" points="14,388.5781,4,392.5781,14,396.5781,10,392.5781" style="stroke: #A80036; stroke-width: 1.0;"/><line style="stroke: #A80036; stroke-width: 1.0; stroke-dasharray: 2.0,2.0;" x1="8" x2="154" y1="392.5781" y2="392.5781"/><text fill="#000000" font-family="sans-serif" font-size="13" lengthAdjust="spacingAndGlyphs" textLength="80" x="20" y="387.5122">GenericError</text><polygon fill="#A80036" points="14,417.7109,4,421.7109,14,425.7109,10,421.7109" style="stroke: #A80036; stroke-width: 1.0;"/><line style="stroke: #A80036; stroke-width: 1.0; stroke-dasharray: 2.0,2.0;" x1="8" x2="154" y1="421.7109" y2="421.7109"/><text fill="#000000" font-family="sans-serif" font-size="13" lengthAdjust="spacingAndGlyphs" textLength="80" x="20" y="416.645">GenericError</text><polygon fill="#A80036" points="14,446.8438,4,450.8438,14,454.8438,10,450.8438" style="stroke: #A80036; stroke-width: 1.0;"/><line style="stroke: #A80036; stroke-width: 1.0; stroke-dasharray: 2.0,2.0;" x1="8" x2="154" y1="450.8438" y2="450.8438"/><text fill="#000000" font-family="sans-serif" font-size="13" lengthAdjust="spacingAndGlyphs" textLength="80" x="20" y="445.7778">GenericError</text><polygon fill="#A80036" points="14,475.9766,4,479.9766,14,483.9766,10,479.9766" style="stroke: #A80036; stroke-width: 1.0;"/><line style="stroke: #A80036; stroke-width: 1.0; stroke-dasharray: 2.0,2.0;" x1="8" x2="159" y1="479.9766" y2="479.9766"/><text fill="#000000" font-family="sans-serif" font-size="13" lengthAdjust="spacingAndGlyphs" textLength="84" x="20" y="474.9106">PetResponse</text><!--MD5=[6ff0d48aaa7d895be8b7ba262374d167]
@startuml
''''''''''''''''''''''''''''''''''''''''''
''                                      ''
''  AUTOGENERATED CODE - - DO NOT EDIT!  ''
''                                      ''
''''''''''''''''''''''''''''''''''''''''''


control "Petdemo" as _0
control "Petstore" as _1
control "Flickr" as _2
skinparam maxMessageSize 250
title Petdemo <- GET /random-pet-pic
== Petdemo <- GET /random-pet-pic ==
[->_0 : GET /random-pet-pic
activate _0
 _0->_1 : GET /pet
 activate _1
 _0<- -_1 : Error
 _0<- -_1 : Pet
 deactivate _1
 _0->_2 : GET /rest
 activate _2
 _0<- -_2 : PhotoResource
 deactivate _2
_0 -> _0 : | Get a random pet pic from the petstore
[<- -_0 : GenericError
[<- -_0 : GenericError
[<- -_0 : GenericError
[<- -_0 : PetResponse
deactivate _0
@enduml

@startuml


control "Petdemo" as _0
control "Petstore" as _1
control "Flickr" as _2
skinparam maxMessageSize 250
title Petdemo <- GET /random-pet-pic
== Petdemo <- GET /random-pet-pic ==
[->_0 : GET /random-pet-pic
activate _0
 _0->_1 : GET /pet
 activate _1
 _0<- -_1 : Error
 _0<- -_1 : Pet
 deactivate _1
 _0->_2 : GET /rest
 activate _2
 _0<- -_2 : PhotoResource
 deactivate _2
_0 -> _0 : | Get a random pet pic from the petstore
[<- -_0 : GenericError
[<- -_0 : GenericError
[<- -_0 : GenericError
[<- -_0 : PetResponse
deactivate _0
@enduml

PlantUML version 1.2020.16beta3(Unknown compile time)
(GPL source distribution)
Java Runtime: Java(TM) SE Runtime Environment
JVM: Java HotSpot(TM) 64-Bit Server VM
Default Encoding: UTF-8
Language: en
Country: US
--></g></svg>