<?xml version="1.0" encoding="UTF-8" standalone="no"?><svg xmlns="http://www.w3.org/2000/svg" xmlns:xlink="http://www.w3.org/1999/xlink" contentScriptType="application/ecmascript" contentStyleType="text/css" height="105px" preserveAspectRatio="none" style="width:147px;height:105px;" version="1.1" viewBox="0 0 147 105" width="147px" zoomAndPan="magnify"><defs><filter height="300%" id="f1l0a7im0cz710" width="300%" x="-1" y="-1"><feGaussianBlur result="blurOut" stdDeviation="2.0"/><feColorMatrix in="blurOut" result="blurOut2" type="matrix" values="0 0 0 0 0 0 0 0 0 0 0 0 0 0 0 0 0 0 .4 0"/><feOffset dx="4.0" dy="4.0" in="blurOut2" result="blurOut3"/><feBlend in="SourceGraphic" in2="blurOut3" mode="normal"/></filter></defs><g><!--MD5=[f77682fd75c3e1fc6a82f566c0814d0f]
class _0--><rect codeLine="7" fill="#FEFECE" filter="url(#f1l0a7im0cz710)" height="79.5469" id="_0" style="stroke: #A80036; stroke-width: 1.5;" width="121" x="7" y="7"/><ellipse cx="44.05" cy="25.9688" fill="#DA70D6" rx="11" ry="11" style="stroke: #A80036; stroke-width: 1.0;"/><path d="M41.5656,29.2656 C40.9094,29.2656 40.5188,29.5781 40.5188,30.125 C40.5188,30.375 40.6594,30.6406 40.8781,30.7969 C41.0344,30.9219 41.2531,30.9688 41.6594,30.9688 L45.1281,30.9688 C46.6125,30.9688 47.6281,30.5781 48.4563,29.6875 C49.2375,28.875 49.6438,27.8281 49.6438,26.5781 L49.6438,25.7813 C49.6438,23.1094 47.7531,21.0625 45.2688,21.0625 L41.6594,21.0625 C41.2063,21.0625 41.0813,21.0781 40.925,21.1719 C40.675,21.3281 40.5188,21.625 40.5188,21.9063 C40.5188,22.4531 40.8938,22.75 41.5656,22.75 L41.5656,29.2656 Z M43.2531,29.2656 L43.2531,22.75 L45.1281,22.75 C46.0344,22.75 46.675,23.0313 47.1906,23.625 C47.675,24.2031 47.9563,24.9531 47.9563,25.75 L47.9563,26.5313 C47.9563,27.4063 47.7219,28 47.2531,28.5156 C46.7219,29.0625 46.1594,29.2656 45.1438,29.2656 L43.2531,29.2656 Z "/><text fill="#000000" font-family="sans-serif" font-size="12" font-style="italic" lengthAdjust="spacingAndGlyphs" textLength="44" x="60.95" y="23.1387">«Error»</text><text fill="#000000" font-family="sans-serif" font-size="12" lengthAdjust="spacingAndGlyphs" textLength="30" x="67.95" y="37.1074">Error</text><line style="stroke: #A80036; stroke-width: 1.5;" x1="8" x2="127" y1="44.9375" y2="44.9375"/><ellipse cx="18" cy="55.9375" fill="none" rx="3" ry="3" style="stroke: #038048; stroke-width: 1.0;"/><text fill="#000000" font-family="sans-serif" font-size="11" lengthAdjust="spacingAndGlyphs" textLength="53" x="27" y="59.1479">code : int</text><ellipse cx="18" cy="68.7422" fill="none" rx="3" ry="3" style="stroke: #038048; stroke-width: 1.0;"/><text fill="#000000" font-family="sans-serif" font-size="11" lengthAdjust="spacingAndGlyphs" textLength="95" x="27" y="71.9526">message : string</text><line style="stroke: #A80036; stroke-width: 1.5;" x1="8" x2="127" y1="78.5469" y2="78.5469"/><!--MD5=[8fda7377c828628100bb62c5c7d77c0b]
@startuml
''''''''''''''''''''''''''''''''''''''''''
''                                      ''
''  AUTOGENERATED CODE - - DO NOT EDIT!  ''
''                                      ''
''''''''''''''''''''''''''''''''''''''''''

class "Error" as _0 << (D,orchid) Error >> {
+ code : int
+ message : string
}
@enduml

@startuml

class "Error" as _0 << (D,orchid) Error >> {
+ code : int
+ message : string
}
@enduml

PlantUML version 1.2020.16beta3(Unknown compile time)
(GPL source distribution)
Java Runtime: Java(TM) SE Runtime Environment
JVM: Java HotSpot(TM) 64-Bit Server VM
Default Encoding: UTF-8
Language: en
Country: US
--></g></svg>