<?xml version="1.0" encoding="UTF-8" standalone="no"?><svg xmlns="http://www.w3.org/2000/svg" xmlns:xlink="http://www.w3.org/1999/xlink" contentScriptType="application/ecmascript" contentStyleType="text/css" height="118px" preserveAspectRatio="none" style="width:127px;height:118px;" version="1.1" viewBox="0 0 127 118" width="127px" zoomAndPan="magnify"><defs><filter height="300%" id="fj77nxq63wf23" width="300%" x="-1" y="-1"><feGaussianBlur result="blurOut" stdDeviation="2.0"/><feColorMatrix in="blurOut" result="blurOut2" type="matrix" values="0 0 0 0 0 0 0 0 0 0 0 0 0 0 0 0 0 0 .4 0"/><feOffset dx="4.0" dy="4.0" in="blurOut2" result="blurOut3"/><feBlend in="SourceGraphic" in2="blurOut3" mode="normal"/></filter></defs><g><!--MD5=[f77682fd75c3e1fc6a82f566c0814d0f]
class _0--><rect codeLine="7" fill="#FEFECE" filter="url(#fj77nxq63wf23)" height="92.3516" id="_0" style="stroke: #A80036; stroke-width: 1.5;" width="101" x="7" y="7"/><ellipse cx="40" cy="25.9688" fill="#DA70D6" rx="11" ry="11" style="stroke: #A80036; stroke-width: 1.0;"/><path d="M37.5156,29.2656 C36.8594,29.2656 36.4688,29.5781 36.4688,30.125 C36.4688,30.375 36.6094,30.6406 36.8281,30.7969 C36.9844,30.9219 37.2031,30.9688 37.6094,30.9688 L41.0781,30.9688 C42.5625,30.9688 43.5781,30.5781 44.4063,29.6875 C45.1875,28.875 45.5938,27.8281 45.5938,26.5781 L45.5938,25.7813 C45.5938,23.1094 43.7031,21.0625 41.2188,21.0625 L37.6094,21.0625 C37.1563,21.0625 37.0313,21.0781 36.875,21.1719 C36.625,21.3281 36.4688,21.625 36.4688,21.9063 C36.4688,22.4531 36.8438,22.75 37.5156,22.75 L37.5156,29.2656 Z M39.2031,29.2656 L39.2031,22.75 L41.0781,22.75 C41.9844,22.75 42.625,23.0313 43.1406,23.625 C43.625,24.2031 43.9063,24.9531 43.9063,25.75 L43.9063,26.5313 C43.9063,27.4063 43.6719,28 43.2031,28.5156 C42.6719,29.0625 42.1094,29.2656 41.0938,29.2656 L39.2031,29.2656 Z "/><text fill="#000000" font-family="sans-serif" font-size="12" font-style="italic" lengthAdjust="spacingAndGlyphs" textLength="33" x="56" y="23.1387">«Pet»</text><text fill="#000000" font-family="sans-serif" font-size="12" lengthAdjust="spacingAndGlyphs" textLength="18" x="63.5" y="37.1074">Pet</text><line style="stroke: #A80036; stroke-width: 1.5;" x1="8" x2="107" y1="44.9375" y2="44.9375"/><ellipse cx="18" cy="55.9375" fill="none" rx="3" ry="3" style="stroke: #038048; stroke-width: 1.0;"/><text fill="#000000" font-family="sans-serif" font-size="11" lengthAdjust="spacingAndGlyphs" textLength="35" x="27" y="59.1479">id : int</text><ellipse cx="18" cy="68.7422" fill="none" rx="3" ry="3" style="stroke: #038048; stroke-width: 1.0;"/><text fill="#000000" font-family="sans-serif" font-size="11" lengthAdjust="spacingAndGlyphs" textLength="75" x="27" y="71.9526">name : string</text><ellipse cx="18" cy="81.5469" fill="none" rx="3" ry="3" style="stroke: #038048; stroke-width: 1.0;"/><text fill="#000000" font-family="sans-serif" font-size="11" lengthAdjust="spacingAndGlyphs" textLength="60" x="27" y="84.7573">tag : string</text><line style="stroke: #A80036; stroke-width: 1.5;" x1="8" x2="107" y1="91.3516" y2="91.3516"/><!--MD5=[6d5ce07d5889df6c13c8a2a739209325]
@startuml
''''''''''''''''''''''''''''''''''''''''''
''                                      ''
''  AUTOGENERATED CODE - - DO NOT EDIT!  ''
''                                      ''
''''''''''''''''''''''''''''''''''''''''''

class "Pet" as _0 << (D,orchid) Pet >> {
+ id : int
+ name : string
+ tag : string
}
@enduml

@startuml

class "Pet" as _0 << (D,orchid) Pet >> {
+ id : int
+ name : string
+ tag : string
}
@enduml

PlantUML version 1.2020.16beta3(Unknown compile time)
(GPL source distribution)
Java Runtime: Java(TM) SE Runtime Environment
JVM: Java HotSpot(TM) 64-Bit Server VM
Default Encoding: UTF-8
Language: en
Country: US
--></g></svg>