<?xml version="1.0" encoding="UTF-8" standalone="no"?><svg xmlns="http://www.w3.org/2000/svg" xmlns:xlink="http://www.w3.org/1999/xlink" contentScriptType="application/ecmascript" contentStyleType="text/css" height="78px" preserveAspectRatio="none" style="width:79px;height:78px;" version="1.1" viewBox="0 0 79 78" width="79px" zoomAndPan="magnify"><defs><filter height="300%" id="f1b0t2g8avn7e9" width="300%" x="-1" y="-1"><feGaussianBlur result="blurOut" stdDeviation="2.0"/><feColorMatrix in="blurOut" result="blurOut2" type="matrix" values="0 0 0 0 0 0 0 0 0 0 0 0 0 0 0 0 0 0 .4 0"/><feOffset dx="4.0" dy="4.0" in="blurOut2" result="blurOut3"/><feBlend in="SourceGraphic" in2="blurOut3" mode="normal"/></filter></defs><g><!--MD5=[f77682fd75c3e1fc6a82f566c0814d0f]
class _0--><rect fill="#FEFECE" filter="url(#f1b0t2g8avn7e9)" height="60.8047" id="_0" style="stroke: #A80036; stroke-width: 1.5;" width="61" x="7" y="7"/><ellipse cx="26.95" cy="23" fill="#DA70D6" rx="11" ry="11" style="stroke: #A80036; stroke-width: 1.0;"/><path d="M24.4656,26.2969 C23.8094,26.2969 23.4188,26.6094 23.4188,27.1563 C23.4188,27.4063 23.5594,27.6719 23.7781,27.8281 C23.9344,27.9531 24.1531,28 24.5594,28 L28.0281,28 C29.5125,28 30.5281,27.6094 31.3563,26.7188 C32.1375,25.9063 32.5438,24.8594 32.5438,23.6094 L32.5438,22.8125 C32.5438,20.1406 30.6531,18.0938 28.1688,18.0938 L24.5594,18.0938 C24.1063,18.0938 23.9813,18.1094 23.825,18.2031 C23.575,18.3594 23.4188,18.6563 23.4188,18.9375 C23.4188,19.4844 23.7938,19.7813 24.4656,19.7813 L24.4656,26.2969 Z M26.1531,26.2969 L26.1531,19.7813 L28.0281,19.7813 C28.9344,19.7813 29.575,20.0625 30.0906,20.6563 C30.575,21.2344 30.8563,21.9844 30.8563,22.7813 L30.8563,23.5625 C30.8563,24.4375 30.6219,25.0313 30.1531,25.5469 C29.6219,26.0938 29.0594,26.2969 28.0438,26.2969 L26.1531,26.2969 Z "/><text fill="#000000" font-family="sans-serif" font-size="12" lengthAdjust="spacingAndGlyphs" textLength="18" x="42.05" y="27.1543">INT</text><line style="stroke: #A80036; stroke-width: 1.5;" x1="8" x2="67" y1="39" y2="39"/><ellipse cx="18" cy="50" fill="none" rx="3" ry="3" style="stroke: #038048; stroke-width: 1.0;"/><text fill="#000000" font-family="sans-serif" font-size="11" lengthAdjust="spacingAndGlyphs" textLength="35" x="27" y="53.2104">id : int</text><line style="stroke: #A80036; stroke-width: 1.5;" x1="8" x2="67" y1="59.8047" y2="59.8047"/><!--MD5=[4a3444d63d61b4580163e812115151ca]
@startuml
''''''''''''''''''''''''''''''''''''''''''
''                                      ''
''  AUTOGENERATED CODE - - DO NOT EDIT!  ''
''                                      ''
''''''''''''''''''''''''''''''''''''''''''

class "INT" as _0 << (D,orchid) >> {
+ id : int
}
@enduml

@startuml

class "INT" as _0 << (D,orchid) >> {
+ id : int
}
@enduml

PlantUML version 1.2020.11(Sat May 30 10:13:43 UTC 2020)
(GPL source distribution)
Java Runtime: Java(TM) SE Runtime Environment
JVM: Java HotSpot(TM) 64-Bit Server VM
Default Encoding: UTF-8
Language: en
Country: US
--></g></svg>